<?xml version="1.0" encoding="UTF-8"?>
<!DOCTYPE svg PUBLIC "-//W3C//DTD SVG 1.1//EN" "http://www.w3.org/Graphics/SVG/1.1/DTD/svg11.dtd">
<svg xmlns="http://www.w3.org/2000/svg" version="1.1" width="721px" height="695px" style="shape-rendering:geometricPrecision; text-rendering:geometricPrecision; image-rendering:optimizeQuality; fill-rule:evenodd; clip-rule:evenodd" xmlns:xlink="http://www.w3.org/1999/xlink">
<g><path style="opacity:0.168" fill="#e6e7f0" d="M 550.5,101.5 C 549.833,105.5 549.167,109.5 548.5,113.5C 550.292,75.9043 534.625,48.4043 501.5,31C 477.473,21.8877 453.807,22.3877 430.5,32.5C 430.5,32.1667 430.5,31.8333 430.5,31.5C 435.349,27.5802 441.016,24.9135 447.5,23.5C 489.006,16.0675 520.839,30.4009 543,66.5C 547.437,77.7625 549.937,89.4292 550.5,101.5 Z"/></g>
<g><path style="opacity:1" fill="#11cbfe" d="M 367.5,38.5 C 383.261,39.9176 398.928,41.9176 414.5,44.5C 405.405,52.6011 397.738,61.9344 391.5,72.5C 384.779,73.2019 378.113,73.8686 371.5,74.5C 364.581,75.4703 358.248,77.8037 352.5,81.5C 337.004,89.1589 324.838,100.492 316,115.5C 305.692,133.063 300.859,152.063 301.5,172.5C 301.548,183.596 302.548,194.596 304.5,205.5C 298.766,202.966 292.766,201.633 286.5,201.5C 284.871,189.754 278.871,180.92 268.5,175C 246.889,164.361 229.056,168.861 215,188.5C 213.275,191.674 211.942,195.007 211,198.5C 210.831,204.859 210.331,211.193 209.5,217.5C 195.912,211.088 187.578,215.254 184.5,230C 184.147,233.2 185.147,235.867 187.5,238C 230.002,238.831 272.335,238.665 314.5,237.5C 319.804,250.097 327.137,261.43 336.5,271.5C 333.333,275.167 330.167,278.833 327,282.5C 326.333,284.167 326.333,285.833 327,287.5C 331.243,289.688 335.743,291.188 340.5,292C 341.428,292.388 342.095,293.055 342.5,294C 337.831,327.197 332.997,360.363 328,393.5C 327.161,394.624 325.994,395.291 324.5,395.5C 317.082,396.717 309.748,398.217 302.5,400C 299.167,400.667 295.833,400.667 292.5,400C 278.606,394.514 264.939,388.514 251.5,382C 246.109,380.347 241.942,381.847 239,386.5C 235.546,393.738 232.379,401.072 229.5,408.5C 228.847,409.807 228.18,411.14 227.5,412.5C 216.083,414.217 204.75,416.383 193.5,419C 192,420.5 190.5,422 189,423.5C 171.93,463.34 154.763,503.007 137.5,542.5C 137.5,541.833 137.167,541.5 136.5,541.5C 96.8636,500.771 70.8636,452.438 58.5,396.5C 88.3194,394.836 118.319,393.836 148.5,393.5C 152.285,382.666 149.618,373.499 140.5,366C 135.821,362.774 130.655,360.941 125,360.5C 119.378,360.925 113.878,361.925 108.5,363.5C 106.093,343.201 95.0928,330.034 75.5,324C 67.5069,323.5 59.5069,323.334 51.5,323.5C 57.0242,231.083 95.6908,155.916 167.5,98C 195.844,76.9939 226.844,60.9939 260.5,50C 263.478,49.304 266.478,48.804 269.5,48.5C 274.833,47.9073 280.167,47.2406 285.5,46.5C 296.875,44.1378 308.208,41.6378 319.5,39C 335.497,38.5001 351.497,38.3334 367.5,38.5 Z"/></g>
<g><path style="opacity:0.993" fill="#6ddaf9" d="M 367.5,38.5 C 351.497,38.3334 335.497,38.5001 319.5,39C 308.208,41.6378 296.875,44.1378 285.5,46.5C 280.167,47.2406 274.833,47.9073 269.5,48.5C 272.282,47.067 275.282,45.9003 278.5,45C 291.758,42.2015 305.091,39.8681 318.5,38C 335.005,37.1718 351.339,37.3385 367.5,38.5 Z"/></g>
<g><path style="opacity:1" fill="#1046a1" d="M 371.5,74.5 C 365.304,77.0931 358.971,79.4264 352.5,81.5C 358.248,77.8037 364.581,75.4703 371.5,74.5 Z"/></g>
<g><path style="opacity:1" fill="#10cafe" d="M 548.5,113.5 C 548.351,114.552 548.517,115.552 549,116.5C 616.553,180.771 647.886,259.771 643,353.5C 641.698,369.973 639.531,386.306 636.5,402.5C 632.805,400.322 629.472,397.489 626.5,394C 609.185,381.998 590.851,380.332 571.5,389C 559.345,396.655 551.678,407.489 548.5,421.5C 534.379,421.449 524.212,427.783 518,440.5C 505.702,435.994 496.702,439.661 491,451.5C 490.333,455.833 490.333,460.167 491,464.5C 492.147,466.819 493.981,468.152 496.5,468.5C 534.344,468.835 572.011,469.835 609.5,471.5C 608.5,473.5 607.5,475.5 606.5,477.5C 557.988,560.439 486.322,610.272 391.5,627C 382.389,627.697 373.389,628.863 364.5,630.5C 379.175,595.466 393.842,560.466 408.5,525.5C 411.252,521.299 412.086,516.632 411,511.5C 406.163,503.156 400.83,495.156 395,487.5C 394.125,486.127 393.625,484.627 393.5,483C 396.606,474.352 400.106,465.852 404,457.5C 405.445,452.277 403.945,448.11 399.5,445C 383.988,439.249 368.655,432.915 353.5,426C 348.485,418.323 343.485,410.656 338.5,403C 359.819,375.678 381.153,348.344 402.5,321C 406.688,323.438 411.022,325.938 415.5,328.5C 417.425,328.41 418.592,327.41 419,325.5C 419.182,320.839 420.015,316.339 421.5,312C 430.849,311.651 440.182,311.151 449.5,310.5C 458.443,310.498 466.776,308.498 474.5,304.5C 501.999,295.482 525.165,279.815 544,257.5C 559.222,236.282 565.889,212.615 564,186.5C 561.149,169.076 553.649,154.076 541.5,141.5C 544.706,132.248 547.039,122.915 548.5,113.5 Z"/></g>
<g><path style="opacity:1" fill="#fcfdfe" d="M 304.5,205.5 C 306.953,216.423 310.287,227.09 314.5,237.5C 272.335,238.665 230.002,238.831 187.5,238C 185.147,235.867 184.147,233.2 184.5,230C 187.578,215.254 195.912,211.088 209.5,217.5C 210.331,211.193 210.831,204.859 211,198.5C 211.942,195.007 213.275,191.674 215,188.5C 229.056,168.861 246.889,164.361 268.5,175C 278.871,180.92 284.871,189.754 286.5,201.5C 292.766,201.633 298.766,202.966 304.5,205.5 Z"/></g>
<g><path style="opacity:1" fill="#110e74" d="M 548.5,113.5 C 547.039,122.915 544.706,132.248 541.5,141.5C 553.649,154.076 561.149,169.076 564,186.5C 565.889,212.615 559.222,236.282 544,257.5C 525.165,279.815 501.999,295.482 474.5,304.5C 466.078,306.538 457.745,308.538 449.5,310.5C 440.182,311.151 430.849,311.651 421.5,312C 420.015,316.339 419.182,320.839 419,325.5C 418.592,327.41 417.425,328.41 415.5,328.5C 411.022,325.938 406.688,323.438 402.5,321C 381.153,348.344 359.819,375.678 338.5,403C 343.485,410.656 348.485,418.323 353.5,426C 368.655,432.915 383.988,439.249 399.5,445C 403.945,448.11 405.445,452.277 404,457.5C 400.106,465.852 396.606,474.352 393.5,483C 393.625,484.627 394.125,486.127 395,487.5C 400.83,495.156 406.163,503.156 411,511.5C 412.086,516.632 411.252,521.299 408.5,525.5C 408.509,523.692 408.009,522.025 407,520.5C 406.617,521.056 406.117,521.389 405.5,521.5C 405.833,520.167 406.167,518.833 406.5,517.5C 405.694,512.22 403.527,507.554 400,503.5C 396.833,499.167 393.667,494.833 390.5,490.5C 389.702,490.957 389.369,491.624 389.5,492.5C 383.039,505.766 377.372,519.433 372.5,533.5C 374.5,533.5 376.5,533.5 378.5,533.5C 376.958,534.163 375.291,534.83 373.5,535.5C 374.668,537.217 376.335,537.884 378.5,537.5C 343.861,543.166 309.195,548.999 274.5,555C 272.881,555.236 271.881,556.069 271.5,557.5C 269.043,556.445 267.377,554.612 266.5,552C 264.452,550.759 262.452,550.592 260.5,551.5C 260.5,550.833 260.167,550.5 259.5,550.5C 242.253,525.673 225.253,500.673 208.5,475.5C 210.5,475.5 211.5,474.5 211.5,472.5C 229.724,497.925 247.724,523.592 265.5,549.5C 278.492,548.408 291.492,546.575 304.5,544C 308.152,543.501 311.818,543.335 315.5,543.5C 321.72,543.043 327.72,542.043 333.5,540.5C 335.948,539.527 338.615,539.194 341.5,539.5C 347.407,539.137 353.073,538.137 358.5,536.5C 360.607,535.532 362.941,535.198 365.5,535.5C 375.845,509.299 386.678,483.299 398,457.5C 398.944,454.653 398.444,452.153 396.5,450C 392.574,448.973 388.907,447.473 385.5,445.5C 383.967,443.755 381.967,442.755 379.5,442.5C 361.158,435.204 342.824,427.538 324.5,419.5C 322.967,417.755 320.967,416.755 318.5,416.5C 294.65,407.496 271.15,397.496 248,386.5C 246.289,386.439 244.956,387.106 244,388.5C 239.265,399.342 234.431,410.009 229.5,420.5C 229.548,417.687 230.215,415.021 231.5,412.5C 230.167,411.167 230.167,409.833 231.5,408.5C 231.03,407.537 230.363,407.537 229.5,408.5C 232.379,401.072 235.546,393.738 239,386.5C 241.942,381.847 246.109,380.347 251.5,382C 264.939,388.514 278.606,394.514 292.5,400C 295.833,400.667 299.167,400.667 302.5,400C 309.748,398.217 317.082,396.717 324.5,395.5C 325.994,395.291 327.161,394.624 328,393.5C 332.997,360.363 337.831,327.197 342.5,294C 342.095,293.055 341.428,292.388 340.5,292C 335.743,291.188 331.243,289.688 327,287.5C 326.333,285.833 326.333,284.167 327,282.5C 330.167,278.833 333.333,275.167 336.5,271.5C 327.137,261.43 319.804,250.097 314.5,237.5C 310.287,227.09 306.953,216.423 304.5,205.5C 302.548,194.596 301.548,183.596 301.5,172.5C 300.859,152.063 305.692,133.063 316,115.5C 324.838,100.492 337.004,89.1589 352.5,81.5C 358.971,79.4264 365.304,77.0931 371.5,74.5C 378.113,73.8686 384.779,73.2019 391.5,72.5C 397.738,61.9344 405.405,52.6011 414.5,44.5C 419.574,40.0839 424.908,36.0839 430.5,32.5C 453.807,22.3877 477.473,21.8877 501.5,31C 534.625,48.4043 550.292,75.9043 548.5,113.5 Z"/></g>
<g><path style="opacity:1" fill="#229a48" d="M 435.5,235.5 C 435.608,244.679 438.108,253.346 443,261.5C 447.258,270.094 454.092,275.261 463.5,277C 483.68,278.616 503.013,275.45 521.5,267.5C 518.551,270.788 515.551,274.121 512.5,277.5C 506.631,281.547 500.631,285.214 494.5,288.5C 492.033,288.755 490.033,289.755 488.5,291.5C 473.283,298.683 457.283,303.016 440.5,304.5C 434.974,304.821 429.64,304.488 424.5,303.5C 431.841,303.666 439.174,303.5 446.5,303C 439.833,302.667 433.167,302.333 426.5,302C 423.05,300.97 419.717,299.637 416.5,298C 414.333,294.5 411.5,291.667 408,289.5C 404.535,282.243 401.368,274.909 398.5,267.5C 397.702,267.957 397.369,268.624 397.5,269.5C 396.209,268.458 396.209,267.292 397.5,266C 411.92,257.964 424.587,247.798 435.5,235.5 Z"/></g>
<g><path style="opacity:1" fill="#ceb991" d="M 431.5,228.5 C 420.959,241.709 408.292,252.376 393.5,260.5C 398.723,255.211 404.39,250.377 410.5,246C 414.107,242.902 417.107,239.402 419.5,235.5C 422.447,234.219 424.781,232.219 426.5,229.5C 428.117,228.962 429.784,228.629 431.5,228.5 Z"/></g>
<g><path style="opacity:1" fill="#3b274c" d="M 308.5,191.5 C 309.862,195.977 310.862,200.643 311.5,205.5C 310.883,205.389 310.383,205.056 310,204.5C 308.925,200.23 308.425,195.897 308.5,191.5 Z"/></g>
<g><path style="opacity:1" fill="#edb719" d="M 353.5,271.5 C 352.167,271.5 350.833,271.5 349.5,271.5C 349.027,270.094 348.027,269.427 346.5,269.5C 338.785,264.284 332.618,257.618 328,249.5C 320.06,235.733 314.56,221.067 311.5,205.5C 310.862,200.643 309.862,195.977 308.5,191.5C 308.5,188.167 308.5,184.833 308.5,181.5C 308.334,174.492 308.5,167.492 309,160.5C 309.286,190.598 316.286,218.932 330,245.5C 333.667,250.5 337.333,255.5 341,260.5C 345.478,265.652 350.978,269.152 357.5,271C 356.207,271.49 354.873,271.657 353.5,271.5 Z"/></g>
<g><path style="opacity:1" fill="#267f55" d="M 465.5,183.5 C 465.741,185.898 465.074,187.898 463.5,189.5C 463.259,187.102 463.926,185.102 465.5,183.5 Z"/></g>
<g><path style="opacity:1" fill="#9ce9a0" d="M 493.5,125.5 C 528.516,131.348 549.682,151.681 557,186.5C 559.211,225.408 544.378,255.741 512.5,277.5C 515.551,274.121 518.551,270.788 521.5,267.5C 539.567,250.028 548.901,228.695 549.5,203.5C 547.247,202.747 545.413,201.414 544,199.5C 538.823,191.905 537.156,183.572 539,174.5C 540.515,172.323 542.015,170.156 543.5,168C 536.115,151.781 524.449,139.614 508.5,131.5C 503.179,129.939 498.179,127.939 493.5,125.5 Z"/></g>
<g><path style="opacity:1" fill="#b48823" d="M 336.5,101.5 C 332.612,110.044 330.112,119.044 329,128.5C 326.379,163.116 333.712,195.45 351,225.5C 356.22,235.054 363.72,242.22 373.5,247C 379.167,247.667 384.833,247.667 390.5,247C 400.491,243.839 410.158,240.006 419.5,235.5C 417.107,239.402 414.107,242.902 410.5,246C 404.39,250.377 398.723,255.211 393.5,260.5C 384.695,266.233 375.029,270.233 364.5,272.5C 360.629,272.815 356.962,272.482 353.5,271.5C 354.873,271.657 356.207,271.49 357.5,271C 350.978,269.152 345.478,265.652 341,260.5C 337.333,255.5 333.667,250.5 330,245.5C 316.286,218.932 309.286,190.598 309,160.5C 308.5,167.492 308.334,174.492 308.5,181.5C 306.007,156.464 311.84,133.464 326,112.5C 329.002,108.332 332.502,104.665 336.5,101.5 Z"/></g>
<g><path style="opacity:1" fill="#2fda34" d="M 493.5,125.5 C 498.179,127.939 503.179,129.939 508.5,131.5C 524.449,139.614 536.115,151.781 543.5,168C 542.015,170.156 540.515,172.323 539,174.5C 537.156,183.572 538.823,191.905 544,199.5C 545.413,201.414 547.247,202.747 549.5,203.5C 548.901,228.695 539.567,250.028 521.5,267.5C 503.013,275.45 483.68,278.616 463.5,277C 454.092,275.261 447.258,270.094 443,261.5C 438.108,253.346 435.608,244.679 435.5,235.5C 447.785,221.9 457.118,206.566 463.5,189.5C 465.074,187.898 465.741,185.898 465.5,183.5C 469.801,164.394 469.467,145.394 464.5,126.5C 465.833,126.5 467.167,126.5 468.5,126.5C 476.816,125.815 485.149,125.482 493.5,125.5 Z"/></g>
<g><path style="opacity:1" fill="#9fef9f" d="M 504.5,148.5 C 508.605,148.234 512.605,148.734 516.5,150C 523.964,154.112 528.63,160.279 530.5,168.5C 528.24,175.054 524.24,176.221 518.5,172C 514,167.5 509.5,163 505,158.5C 503.384,155.176 503.217,151.843 504.5,148.5 Z"/></g>
<g><path style="opacity:1" fill="#f9df8c" d="M 401.5,81.5 C 432.201,88.3662 451.701,107.033 460,137.5C 466.225,172.978 456.725,203.311 431.5,228.5C 429.784,228.629 428.117,228.962 426.5,229.5C 434.606,218.96 441.439,207.626 447,195.5C 451.042,185.203 453.042,174.536 453,163.5C 448.121,159.951 444.787,155.285 443,149.5C 440.377,140.25 441.21,131.417 445.5,123C 444.755,120.008 443.588,117.174 442,114.5C 431.6,99.2781 418.1,88.2781 401.5,81.5 Z"/></g>
<g><path style="opacity:1" fill="#21814e" d="M 493.5,125.5 C 485.149,125.482 476.816,125.815 468.5,126.5C 473.245,125.001 478.245,124.334 483.5,124.5C 487.018,124.502 490.351,124.835 493.5,125.5 Z"/></g>
<g><path style="opacity:1" fill="#916f41" d="M 374.5,80.5 C 370.498,82.6098 366.165,83.9431 361.5,84.5C 365.502,82.3902 369.835,81.0569 374.5,80.5 Z"/></g>
<g><path style="opacity:1" fill="#fec102" d="M 374.5,80.5 C 374.833,80.5 375.167,80.5 375.5,80.5C 384.195,80.3268 392.862,80.6602 401.5,81.5C 418.1,88.2781 431.6,99.2781 442,114.5C 443.588,117.174 444.755,120.008 445.5,123C 441.21,131.417 440.377,140.25 443,149.5C 444.787,155.285 448.121,159.951 453,163.5C 453.042,174.536 451.042,185.203 447,195.5C 441.439,207.626 434.606,218.96 426.5,229.5C 424.781,232.219 422.447,234.219 419.5,235.5C 410.158,240.006 400.491,243.839 390.5,247C 384.833,247.667 379.167,247.667 373.5,247C 363.72,242.22 356.22,235.054 351,225.5C 333.712,195.45 326.379,163.116 329,128.5C 330.112,119.044 332.612,110.044 336.5,101.5C 343.266,93.6105 351.599,87.9438 361.5,84.5C 366.165,83.9431 370.498,82.6098 374.5,80.5 Z"/></g>
<g><path style="opacity:1" fill="#fde288" d="M 406.5,102.5 C 419.7,102.935 428.367,109.435 432.5,122C 431.692,127.205 428.692,128.872 423.5,127C 419.5,124 415.5,121 411.5,118C 408.96,115.795 406.793,113.295 405,110.5C 404.109,107.502 404.609,104.836 406.5,102.5 Z"/></g>
<g><path style="opacity:1" fill="#9a7847" d="M 375.5,80.5 C 378.984,79.8346 382.651,79.5013 386.5,79.5C 391.767,79.2871 396.767,79.9538 401.5,81.5C 392.862,80.6602 384.195,80.3268 375.5,80.5 Z"/></g>
<g><path style="opacity:1" fill="#f88fb6" d="M 477.5,31.5 C 502.034,34.8815 520.534,47.2148 533,68.5C 543.35,90.8266 544.183,113.493 535.5,136.5C 533.429,134.815 531.429,133.148 529.5,131.5C 530.496,131.414 531.329,131.748 532,132.5C 535.297,121.37 536.13,110.036 534.5,98.5C 525.243,92.3175 521.076,83.6508 522,72.5C 523.067,71.0569 524.234,69.7236 525.5,68.5C 514.03,49.9992 498.03,37.6659 477.5,31.5 Z"/></g>
<g><path style="opacity:1" fill="#fd1665" d="M 477.5,31.5 C 498.03,37.6659 514.03,49.9992 525.5,68.5C 524.234,69.7236 523.067,71.0569 522,72.5C 521.076,83.6508 525.243,92.3175 534.5,98.5C 536.13,110.036 535.297,121.37 532,132.5C 531.329,131.748 530.496,131.414 529.5,131.5C 520.844,126.162 511.511,122.162 501.5,119.5C 500.737,118.732 499.737,118.232 498.5,118C 490.655,117.178 482.989,117.344 475.5,118.5C 470.705,118.517 466.038,119.017 461.5,120C 448.688,94.7539 428.354,79.4206 400.5,74C 400.043,73.586 399.709,73.086 399.5,72.5C 412.988,49.8405 432.654,36.0072 458.5,31C 464.856,30.4065 471.189,30.5731 477.5,31.5 Z"/></g>
<g><path style="opacity:1" fill="#930e65" d="M 475.5,118.5 C 482.989,117.344 490.655,117.178 498.5,118C 499.737,118.232 500.737,118.732 501.5,119.5C 492.867,118.623 484.2,118.289 475.5,118.5 Z"/></g>
<g><path style="opacity:1" fill="#fd92b7" d="M 491.5,53.5 C 502.526,52.9256 510.359,57.5923 515,67.5C 516.357,73.9806 513.857,76.4806 507.5,75C 500.927,70.6363 495.094,65.4697 490,59.5C 489.252,57.1599 489.752,55.1599 491.5,53.5 Z"/></g>
<g><path style="opacity:1" fill="#77604d" d="M 346.5,269.5 C 348.027,269.427 349.027,270.094 349.5,271.5C 347.973,271.573 346.973,270.906 346.5,269.5 Z"/></g>
<g><path style="opacity:1" fill="#674d4b" d="M 349.5,271.5 C 350.833,271.5 352.167,271.5 353.5,271.5C 356.962,272.482 360.629,272.815 364.5,272.5C 362.696,273.162 360.696,273.495 358.5,273.5C 355.186,273.657 352.186,272.991 349.5,271.5 Z"/></g>
<g><path style="opacity:1" fill="#edb51a" d="M 347.5,277.5 C 349.838,279.04 352.505,279.706 355.5,279.5C 356.434,280.568 356.768,281.901 356.5,283.5C 356.662,285.527 356.495,287.527 356,289.5C 354.644,288.62 353.144,288.286 351.5,288.5C 346.239,286.97 340.905,285.637 335.5,284.5C 336.612,281.134 338.612,278.301 341.5,276C 343.689,275.678 345.689,276.178 347.5,277.5 Z"/></g>
<g><path style="opacity:1" fill="#6e5046" d="M 347.5,277.5 C 350.428,277.565 353.095,278.232 355.5,279.5C 352.505,279.706 349.838,279.04 347.5,277.5 Z"/></g>
<g><path style="opacity:1" fill="#0fc4f8" d="M 390.5,275.5 C 393.615,281.084 396.282,287.084 398.5,293.5C 395.103,297.045 391.103,299.879 386.5,302C 383.646,305.6 384.313,308.6 388.5,311C 391.603,312.439 394.436,314.273 397,316.5C 397.667,317.5 397.667,318.5 397,319.5C 378.285,342.546 359.952,365.88 342,389.5C 341.333,388.5 341.333,387.5 342,386.5C 358.457,349.629 374.624,312.629 390.5,275.5 Z"/></g>
<g><path style="opacity:1" fill="#7e633d" d="M 356.5,283.5 C 357.468,285.607 357.802,287.941 357.5,290.5C 355.214,290.405 353.214,289.738 351.5,288.5C 353.144,288.286 354.644,288.62 356,289.5C 356.495,287.527 356.662,285.527 356.5,283.5 Z"/></g>
<g><path style="opacity:1" fill="#19485d" d="M 494.5,288.5 C 492.967,290.245 490.967,291.245 488.5,291.5C 490.033,289.755 492.033,288.755 494.5,288.5 Z"/></g>
<g><path style="opacity:1" fill="#2fc93f" d="M 424.5,303.5 C 422.194,303.007 419.861,302.674 417.5,302.5C 413.309,300.817 409.809,298.15 407,294.5C 402.542,286.62 399.375,278.287 397.5,269.5C 397.369,268.624 397.702,267.957 398.5,267.5C 401.368,274.909 404.535,282.243 408,289.5C 411.5,291.667 414.333,294.5 416.5,298C 419.717,299.637 423.05,300.97 426.5,302C 433.167,302.333 439.833,302.667 446.5,303C 439.174,303.5 431.841,303.666 424.5,303.5 Z"/></g>
<g><path style="opacity:1" fill="#11c6fa" d="M 381.5,273.5 C 382.978,273.238 384.311,273.571 385.5,274.5C 368.076,313.686 350.909,353.019 334,392.5C 337.774,359.706 342.608,327.04 348.5,294.5C 352.618,295.975 356.784,297.308 361,298.5C 362.107,298.415 363.107,298.081 364,297.5C 364.558,291.083 364.058,284.749 362.5,278.5C 369.265,278.387 375.598,276.72 381.5,273.5 Z"/></g>
<g><path style="opacity:1" fill="#1e605a" d="M 417.5,302.5 C 419.861,302.674 422.194,303.007 424.5,303.5C 429.64,304.488 434.974,304.821 440.5,304.5C 435.015,305.652 429.349,305.818 423.5,305C 421.277,304.434 419.277,303.6 417.5,302.5 Z"/></g>
<g><path style="opacity:1" fill="#2dca3b" d="M 401.5,300.5 C 404.787,301.264 407.454,303.097 409.5,306C 411.025,307.009 412.692,307.509 414.5,307.5C 414.76,311.348 414.094,315.015 412.5,318.5C 406.068,314.892 400.068,310.725 394.5,306C 396.871,304.156 399.205,302.323 401.5,300.5 Z"/></g>
<g><path style="opacity:1" fill="#1683ca" d="M 474.5,304.5 C 466.776,308.498 458.443,310.498 449.5,310.5C 457.745,308.538 466.078,306.538 474.5,304.5 Z"/></g>
<g><path style="opacity:0.96" fill="#fbfefe" d="M 430.5,31.5 C 430.5,31.8333 430.5,32.1667 430.5,32.5C 424.908,36.0839 419.574,40.0839 414.5,44.5C 398.928,41.9176 383.261,39.9176 367.5,38.5C 351.339,37.3385 335.005,37.1718 318.5,38C 305.091,39.8681 291.758,42.2015 278.5,45C 275.282,45.9003 272.282,47.067 269.5,48.5C 266.478,48.804 263.478,49.304 260.5,50C 226.844,60.9939 195.844,76.9939 167.5,98C 95.6908,155.916 57.0242,231.083 51.5,323.5C 59.5069,323.334 67.5069,323.5 75.5,324C 95.0928,330.034 106.093,343.201 108.5,363.5C 113.878,361.925 119.378,360.925 125,360.5C 130.655,360.941 135.821,362.774 140.5,366C 149.618,373.499 152.285,382.666 148.5,393.5C 118.167,393.5 87.8333,393.5 57.5,393.5C 57.2627,394.791 57.596,395.791 58.5,396.5C 70.8636,452.438 96.8636,500.771 136.5,541.5C 134.938,541.267 133.605,540.6 132.5,539.5C 130.629,539.141 129.129,538.141 128,536.5C 85.5944,488.882 59.5944,433.549 50,370.5C 42.0903,276.096 70.0903,194.096 134,124.5C 201.588,58.2898 282.754,28.7898 377.5,36C 388.519,37.7021 399.519,39.5354 410.5,41.5C 416.936,37.737 423.603,34.4037 430.5,31.5 Z"/></g>
<g><path style="opacity:0.966" fill="#fcfefe" d="M 550.5,101.5 C 550.5,106.5 550.5,111.5 550.5,116.5C 554.03,118.197 557.196,120.531 560,123.5C 622.115,188.815 650.448,266.815 645,357.5C 641.96,392.007 634.293,425.674 622,458.5C 619.784,462.725 616.784,466.392 613,469.5C 612.632,473.686 610.799,477.02 607.5,479.5C 607.672,478.508 607.338,477.842 606.5,477.5C 607.5,475.5 608.5,473.5 609.5,471.5C 610.404,470.791 610.737,469.791 610.5,468.5C 572.5,468.5 534.5,468.5 496.5,468.5C 493.981,468.152 492.147,466.819 491,464.5C 490.333,460.167 490.333,455.833 491,451.5C 496.702,439.661 505.702,435.994 518,440.5C 524.212,427.783 534.379,421.449 548.5,421.5C 551.678,407.489 559.345,396.655 571.5,389C 590.851,380.332 609.185,381.998 626.5,394C 629.472,397.489 632.805,400.322 636.5,402.5C 639.531,386.306 641.698,369.973 643,353.5C 647.886,259.771 616.553,180.771 549,116.5C 548.517,115.552 548.351,114.552 548.5,113.5C 549.167,109.5 549.833,105.5 550.5,101.5 Z"/></g>
<g><path style="opacity:1" fill="#fcfcfd" d="M 318.5,416.5 C 320.033,418.245 322.033,419.245 324.5,419.5C 342.824,427.538 361.158,435.204 379.5,442.5C 381.033,444.245 383.033,445.245 385.5,445.5C 388.907,447.473 392.574,448.973 396.5,450C 398.444,452.153 398.944,454.653 398,457.5C 386.678,483.299 375.845,509.299 365.5,535.5C 362.941,535.198 360.607,535.532 358.5,536.5C 352.497,536.333 346.83,537.333 341.5,539.5C 338.615,539.194 335.948,539.527 333.5,540.5C 327.155,540.224 321.155,541.224 315.5,543.5C 311.818,543.335 308.152,543.501 304.5,544C 291.492,546.575 278.492,548.408 265.5,549.5C 247.724,523.592 229.724,497.925 211.5,472.5C 210.178,470.689 209.678,468.689 210,466.5C 217.171,451.497 223.671,436.163 229.5,420.5C 234.431,410.009 239.265,399.342 244,388.5C 244.956,387.106 246.289,386.439 248,386.5C 271.15,397.496 294.65,407.496 318.5,416.5 Z"/></g>
<g><path style="opacity:1" fill="#94e4f5" d="M 148.5,393.5 C 118.319,393.836 88.3194,394.836 58.5,396.5C 57.596,395.791 57.2627,394.791 57.5,393.5C 87.8333,393.5 118.167,393.5 148.5,393.5 Z"/></g>
<g><path style="opacity:1" fill="#3158c8" d="M 309.5,404.5 C 309.97,405.693 310.97,406.36 312.5,406.5C 318.257,405.043 323.924,405.21 329.5,407C 332.502,410.517 334.835,414.35 336.5,418.5C 326.339,414.758 316.339,410.425 306.5,405.5C 307.325,404.614 308.325,404.281 309.5,404.5 Z"/></g>
<g><path style="opacity:1" fill="#b8b6d5" d="M 254.5,410.5 C 265.126,408.74 273.626,412.073 280,420.5C 281.102,429.969 278.936,438.635 273.5,446.5C 268.9,448.479 265.233,447.479 262.5,443.5C 260.234,442.686 257.9,442.186 255.5,442C 252.365,440.734 250.698,438.401 250.5,435C 251.597,429.139 254.263,424.139 258.5,420C 265.61,418.38 269.943,421.047 271.5,428C 269.458,432.292 268.125,436.792 267.5,441.5C 268.5,441.5 269.5,441.5 270.5,441.5C 271.092,438.309 272.259,435.309 274,432.5C 275.793,419.298 269.96,413.798 256.5,416C 249.828,422.499 246.995,430.332 248,439.5C 250.753,444.394 254.919,447.06 260.5,447.5C 260.714,449.144 260.38,450.644 259.5,452C 243.109,449.398 237.942,440.231 244,424.5C 246.317,418.831 249.817,414.164 254.5,410.5 Z"/></g>
<g><path style="opacity:1" fill="#7082cf" d="M 336.5,418.5 C 334.835,414.35 332.502,410.517 329.5,407C 323.924,405.21 318.257,405.043 312.5,406.5C 310.97,406.36 309.97,405.693 309.5,404.5C 316.036,402.644 322.702,401.477 329.5,401C 334.202,406.904 338.536,413.071 342.5,419.5C 340.383,420.469 338.383,420.136 336.5,418.5 Z"/></g>
<g><path style="opacity:1" fill="#8280ad" d="M 318.5,416.5 C 320.967,416.755 322.967,417.755 324.5,419.5C 322.033,419.245 320.033,418.245 318.5,416.5 Z"/></g>
<g><path style="opacity:1" fill="#f5f7f9" d="M 260.5,425.5 C 261.833,425.5 263.167,425.5 264.5,425.5C 264.522,429.436 263.522,433.103 261.5,436.5C 260.311,437.429 258.978,437.762 257.5,437.5C 257.326,433.189 258.326,429.189 260.5,425.5 Z"/></g>
<g><path style="opacity:1" fill="#ccbcd1" d="M 290.5,430.5 C 299.648,433.866 308.648,437.699 317.5,442C 320.232,442.413 322.899,443.08 325.5,444C 330.513,447.173 335.846,449.84 341.5,452C 343.171,455.159 342.337,457.325 339,458.5C 337.112,458.204 335.278,457.704 333.5,457C 320.468,450.238 306.968,444.405 293,439.5C 288.179,437.543 287.346,434.543 290.5,430.5 Z"/></g>
<g><path style="opacity:1" fill="#7777a4" d="M 379.5,442.5 C 381.967,442.755 383.967,443.755 385.5,445.5C 383.033,445.245 381.033,444.245 379.5,442.5 Z"/></g>
<g><path style="opacity:1" fill="#bab8d5" d="M 284.5,445.5 C 307.059,455.217 329.725,464.717 352.5,474C 355.2,474.949 356.033,476.783 355,479.5C 353.274,480.576 351.441,480.743 349.5,480C 327.636,470.833 305.969,461.5 284.5,452C 283.232,449.837 283.232,447.67 284.5,445.5 Z"/></g>
<g><path style="opacity:1" fill="#a1c0f5" d="M 208.5,475.5 C 225.253,500.673 242.253,525.673 259.5,550.5C 257.44,551.811 255.274,551.811 253,550.5C 230.07,516.963 206.903,483.63 183.5,450.5C 183.539,448.011 184.539,446.511 186.5,446C 193.697,456.017 201.03,465.85 208.5,475.5 Z"/></g>
<g><path style="opacity:1" fill="#62d8f8" d="M 496.5,468.5 C 534.5,468.5 572.5,468.5 610.5,468.5C 610.737,469.791 610.404,470.791 609.5,471.5C 572.011,469.835 534.344,468.835 496.5,468.5 Z"/></g>
<g><path style="opacity:1" fill="#b7b6d5" d="M 241.5,462.5 C 243.527,462.338 245.527,462.505 247.5,463C 257.662,468.746 268.329,473.413 279.5,477C 280.856,479.274 280.356,481.107 278,482.5C 268.12,479.974 258.62,476.474 249.5,472C 246.647,470.466 243.814,468.966 241,467.5C 240.616,465.803 240.782,464.137 241.5,462.5 Z"/></g>
<g><path style="opacity:1" fill="#bab7d5" d="M 235.5,476.5 C 241.117,478.298 246.783,480.132 252.5,482C 256.723,484.479 261.056,486.813 265.5,489C 277.309,494.049 289.309,498.716 301.5,503C 304.5,504.667 307.5,506.333 310.5,508C 312.184,510.786 311.517,512.62 308.5,513.5C 285.116,503.086 261.449,493.253 237.5,484C 234.554,482.047 233.887,479.547 235.5,476.5 Z"/></g>
<g><path style="opacity:1" fill="#4389f8" d="M 183.5,450.5 C 206.903,483.63 230.07,516.963 253,550.5C 255.274,551.811 257.44,551.811 259.5,550.5C 260.167,550.5 260.5,550.833 260.5,551.5C 218.019,558.114 175.353,564.448 132.5,570.5C 148.964,530.242 165.964,490.242 183.5,450.5 Z"/></g>
<g><path style="opacity:1" fill="#3060cf" d="M 389.5,492.5 C 390.621,496.474 392.454,500.14 395,503.5C 398.247,507.659 401.247,511.992 404,516.5C 404.671,517.252 405.504,517.586 406.5,517.5C 406.167,518.833 405.833,520.167 405.5,521.5C 404.263,523.774 402.929,526.107 401.5,528.5C 393.652,529.601 385.985,531.268 378.5,533.5C 376.5,533.5 374.5,533.5 372.5,533.5C 377.372,519.433 383.039,505.766 389.5,492.5 Z"/></g>
<g><path style="opacity:1" fill="#6e83ce" d="M 406.5,517.5 C 405.504,517.586 404.671,517.252 404,516.5C 401.247,511.992 398.247,507.659 395,503.5C 392.454,500.14 390.621,496.474 389.5,492.5C 389.369,491.624 389.702,490.957 390.5,490.5C 393.667,494.833 396.833,499.167 400,503.5C 403.527,507.554 405.694,512.22 406.5,517.5 Z"/></g>
<g><path style="opacity:1" fill="#2f60d0" d="M 329.5,658.5 C 279.345,637.218 229.345,615.718 179.5,594C 173.377,592.011 167.377,589.844 161.5,587.5C 154.321,584.409 147.321,581.076 140.5,577.5C 143.193,577.572 145.86,577.905 148.5,578.5C 174.399,574.026 200.399,570.192 226.5,567C 238.179,563.42 250.179,561.753 262.5,562C 285.452,593.777 307.785,625.944 329.5,658.5 Z"/></g>
<g><path style="opacity:1" fill="#080d78" d="M 229.5,420.5 C 223.671,436.163 217.171,451.497 210,466.5C 209.678,468.689 210.178,470.689 211.5,472.5C 211.5,474.5 210.5,475.5 208.5,475.5C 201.03,465.85 193.697,456.017 186.5,446C 184.539,446.511 183.539,448.011 183.5,450.5C 165.964,490.242 148.964,530.242 132.5,570.5C 175.353,564.448 218.019,558.114 260.5,551.5C 262.452,550.592 264.452,550.759 266.5,552C 267.377,554.612 269.043,556.445 271.5,557.5C 271.833,558.5 272.5,559.167 273.5,559.5C 296.667,593.829 320.333,627.829 344.5,661.5C 362.104,621.292 379.437,580.958 396.5,540.5C 397.942,539.18 398.608,537.514 398.5,535.5C 391.819,536.036 385.152,536.703 378.5,537.5C 376.335,537.884 374.668,537.217 373.5,535.5C 375.291,534.83 376.958,534.163 378.5,533.5C 385.985,531.268 393.652,529.601 401.5,528.5C 402.929,526.107 404.263,523.774 405.5,521.5C 406.117,521.389 406.617,521.056 407,520.5C 408.009,522.025 408.509,523.692 408.5,525.5C 393.842,560.466 379.175,595.466 364.5,630.5C 363.463,631.93 362.796,633.597 362.5,635.5C 356.923,646.89 351.923,658.557 347.5,670.5C 344.918,670.975 342.918,670.308 341.5,668.5C 339.5,666.167 337.5,663.833 335.5,661.5C 336.043,661.44 336.376,661.107 336.5,660.5C 312.833,626.5 289.167,592.5 265.5,558.5C 264.167,558.167 262.833,557.833 261.5,557.5C 220.567,562.298 179.9,568.631 139.5,576.5C 139.624,577.107 139.957,577.44 140.5,577.5C 147.321,581.076 154.321,584.409 161.5,587.5C 155.728,589.791 151.395,588.291 148.5,583C 144.152,582.535 139.819,582.035 135.5,581.5C 132.731,580.028 129.731,578.861 126.5,578C 125.196,577.196 124.529,576.029 124.5,574.5C 128.868,563.776 133.201,553.11 137.5,542.5C 154.763,503.007 171.93,463.34 189,423.5C 190.5,422 192,420.5 193.5,419C 204.75,416.383 216.083,414.217 227.5,412.5C 228.18,411.14 228.847,409.807 229.5,408.5C 230.363,407.537 231.03,407.537 231.5,408.5C 230.167,409.833 230.167,411.167 231.5,412.5C 230.215,415.021 229.548,417.687 229.5,420.5 Z"/></g>
<g><path style="opacity:1" fill="#9bbaf2" d="M 396.5,540.5 C 365.241,545.284 333.908,549.784 302.5,554C 300.754,554.471 299.087,555.138 297.5,556C 289.405,556.708 281.405,557.875 273.5,559.5C 272.5,559.167 271.833,558.5 271.5,557.5C 271.881,556.069 272.881,555.236 274.5,555C 309.195,548.999 343.861,543.166 378.5,537.5C 385.152,536.703 391.819,536.036 398.5,535.5C 398.608,537.514 397.942,539.18 396.5,540.5 Z"/></g>
<g><path style="opacity:1" fill="#4289f8" d="M 396.5,540.5 C 379.437,580.958 362.104,621.292 344.5,661.5C 320.333,627.829 296.667,593.829 273.5,559.5C 281.405,557.875 289.405,556.708 297.5,556C 299.087,555.138 300.754,554.471 302.5,554C 333.908,549.784 365.241,545.284 396.5,540.5 Z"/></g>
<g><path style="opacity:1" fill="#5a5594" d="M 333.5,540.5 C 327.72,542.043 321.72,543.043 315.5,543.5C 321.155,541.224 327.155,540.224 333.5,540.5 Z"/></g>
<g><path style="opacity:1" fill="#5a5797" d="M 358.5,536.5 C 353.073,538.137 347.407,539.137 341.5,539.5C 346.83,537.333 352.497,536.333 358.5,536.5 Z"/></g>
<g><path style="opacity:1" fill="#2e5ece" d="M 223.5,422.5 C 217.382,436.015 211.548,449.681 206,463.5C 200.152,454.99 194.318,446.49 188.5,438C 190.047,433.803 192.047,429.969 194.5,426.5C 195.274,427.147 196.274,427.48 197.5,427.5C 206.046,425.278 214.713,423.612 223.5,422.5 Z"/></g>
<g><path style="opacity:1" fill="#6c7ecb" d="M 223.5,422.5 C 214.713,423.612 206.046,425.278 197.5,427.5C 196.274,427.48 195.274,427.147 194.5,426.5C 195.29,425.206 196.29,424.039 197.5,423C 203.516,422.093 209.516,421.093 215.5,420C 218.554,419.179 221.554,419.345 224.5,420.5C 224.137,421.183 223.804,421.85 223.5,422.5 Z"/></g>
<g><path style="opacity:0.071" fill="#eefafd" d="M 606.5,477.5 C 607.338,477.842 607.672,478.508 607.5,479.5C 568.926,546.644 512.926,592.811 439.5,618C 415.135,624.891 390.469,629.725 365.5,632.5C 365.539,635.089 364.539,637.089 362.5,638.5C 362.5,637.5 362.5,636.5 362.5,635.5C 362.796,633.597 363.463,631.93 364.5,630.5C 373.389,628.863 382.389,627.697 391.5,627C 486.322,610.272 557.988,560.439 606.5,477.5 Z"/></g>
<g><path style="opacity:0.034" fill="#e9eaf3" d="M 132.5,539.5 C 133.605,540.6 134.938,541.267 136.5,541.5C 137.167,541.5 137.5,541.833 137.5,542.5C 133.201,553.11 128.868,563.776 124.5,574.5C 124.529,576.029 125.196,577.196 126.5,578C 129.731,578.861 132.731,580.028 135.5,581.5C 182.556,602.622 230.223,622.789 278.5,642C 291.278,648.219 304.278,654.219 317.5,660C 323.844,660.779 329.511,663.112 334.5,667C 336.74,667.977 339.073,668.477 341.5,668.5C 342.918,670.308 344.918,670.975 347.5,670.5C 351.923,658.557 356.923,646.89 362.5,635.5C 362.5,636.5 362.5,637.5 362.5,638.5C 358.628,649.767 353.961,660.767 348.5,671.5C 347.252,672.04 346.085,672.707 345,673.5C 270.528,642.239 196.528,610.239 123,577.5C 122.333,575.5 122.333,573.5 123,571.5C 126.431,562.141 130.265,552.974 134.5,544C 133.586,542.594 132.92,541.094 132.5,539.5 Z"/></g>
<g><path style="opacity:1" fill="#4083f2" d="M 335.5,661.5 C 333.456,660.478 331.456,659.478 329.5,658.5C 307.785,625.944 285.452,593.777 262.5,562C 250.179,561.753 238.179,563.42 226.5,567C 200.399,570.192 174.399,574.026 148.5,578.5C 145.86,577.905 143.193,577.572 140.5,577.5C 139.957,577.44 139.624,577.107 139.5,576.5C 179.9,568.631 220.567,562.298 261.5,557.5C 262.833,557.833 264.167,558.167 265.5,558.5C 289.167,592.5 312.833,626.5 336.5,660.5C 336.376,661.107 336.043,661.44 335.5,661.5 Z"/></g>
<g><path style="opacity:0.996" fill="#1c1577" d="M 135.5,581.5 C 139.819,582.035 144.152,582.535 148.5,583C 151.395,588.291 155.728,589.791 161.5,587.5C 167.377,589.844 173.377,592.011 179.5,594C 229.345,615.718 279.345,637.218 329.5,658.5C 331.456,659.478 333.456,660.478 335.5,661.5C 337.5,663.833 339.5,666.167 341.5,668.5C 339.073,668.477 336.74,667.977 334.5,667C 329.511,663.112 323.844,660.779 317.5,660C 304.278,654.219 291.278,648.219 278.5,642C 230.223,622.789 182.556,602.622 135.5,581.5 Z"/></g>
</svg>
