<svg version="1.1" id="Layer_1" xmlns="http://www.w3.org/2000/svg" xmlns:xlink="http://www.w3.org/1999/xlink" x="0px" y="0px" width="100%" viewBox="0 0 500 500" enable-background="new 0 0 500 500" xml:space="preserve">

<path fill="#343C91" opacity="1.000000" stroke="none" d="
M142.687042,375.019165 
	C143.491928,374.569000 143.901031,374.102264 144.310150,373.635498 
	C143.057602,372.538177 141.807373,371.438171 140.552216,370.343842 
	C98.208023,333.426453 77.362602,286.559662 81.525261,230.830917 
	C86.653618,162.173752 121.508720,111.889618 185.690781,85.957153 
	C253.464508,58.573479 315.845459,72.492485 368.966187,121.568237 
	C402.558533,152.602600 418.606567,193.032791 418.999939,239.120544 
	C419.476685,294.976379 397.386841,340.351501 353.944305,374.941345 
	C325.693268,397.435455 293.120575,409.742126 256.687897,410.063751 
	C244.583054,410.170593 232.451157,408.910858 220.361664,407.912140 
	C217.187698,407.649963 215.148209,408.361420 212.961914,410.591858 
	C194.372849,429.556580 171.334961,436.931213 144.907318,435.521362 
	C146.398727,434.948730 147.890961,434.378174 149.381348,433.802856 
	C150.927292,433.206085 152.480423,432.626740 154.015091,432.002075 
	C176.016754,423.046722 192.173645,407.502563 203.771896,387.116882 
	C211.224731,374.017395 218.077728,360.576599 225.315216,347.073090 
	C228.996109,349.620636 233.170502,352.509735 237.353683,355.404907 
	C240.673798,351.873535 240.333908,348.453522 238.584473,344.921448 
	C235.042191,337.769684 231.341690,330.690979 228.027222,323.435638 
	C227.244476,321.722229 227.008026,319.104248 227.747345,317.451202 
	C235.678482,299.718384 243.896957,282.114380 251.945480,264.433594 
	C255.042603,257.629913 254.985321,257.737061 261.192230,262.350464 
	C278.596954,275.286865 291.096405,292.579926 303.780823,309.729248 
	C306.238068,313.051453 308.675629,316.388184 311.161377,319.771484 
	C315.745392,314.918274 316.470764,311.189636 314.026611,305.927856 
	C311.715057,300.951508 309.641449,295.838104 306.958038,291.069214 
	C304.758636,287.160431 304.591278,283.674072 306.911072,279.904083 
	C307.687714,278.641937 308.162537,277.190674 308.744934,275.813019 
	C310.786865,270.982727 310.401611,270.370758 304.392395,269.175446 
	C303.204102,271.402374 301.980438,273.695557 300.239349,276.958496 
	C296.275818,268.756836 291.955017,261.573517 289.480377,253.802353 
	C288.532623,250.826141 292.078247,246.573425 293.002899,242.763245 
	C293.328400,241.421982 291.942474,239.665405 291.337982,238.098450 
	C289.882782,238.680771 288.285065,239.054733 287.022278,239.918396 
	C286.176270,240.497040 285.805542,241.770599 284.851166,243.345261 
	C283.794067,242.021271 282.867432,241.173538 282.328583,240.126266 
	C280.808075,237.171066 279.808533,233.886871 277.956055,231.174652 
	C272.005127,222.461853 272.677734,214.349991 277.288757,204.910660 
	C281.899689,195.471558 284.267242,184.918335 287.388092,174.782623 
	C288.156525,172.286896 288.260376,169.512848 288.226715,166.872406 
	C288.207581,165.374695 287.559174,162.848145 286.715851,162.629440 
	C285.283142,162.257935 282.720184,162.808182 281.941528,163.902618 
	C276.382599,171.715881 270.738770,179.525040 265.959564,187.818237 
	C262.413300,193.971939 260.319061,200.946381 257.162811,207.350586 
	C256.200317,209.303528 254.121811,211.287216 252.102158,212.034393 
	C244.715240,214.767227 237.137589,216.984467 228.474548,219.767700 
	C229.208313,217.070801 230.108932,215.583572 229.807877,214.402725 
	C229.437164,212.948608 228.296570,211.371429 227.030304,210.596588 
	C226.374680,210.195419 224.714111,211.379135 223.543900,211.924744 
	C223.310104,212.033737 223.174469,212.481949 223.105911,212.798111 
	C219.699707,228.507767 204.974182,225.788177 195.201416,231.126617 
	C194.785736,230.766800 194.370056,230.406967 193.954361,230.047150 
	C194.489044,228.436249 195.506943,226.799194 195.421509,225.221878 
	C195.337250,223.666275 194.478333,221.698578 193.289001,220.837418 
	C192.638214,220.366226 190.597549,221.803116 189.194611,222.405136 
	C189.087479,222.451111 189.041595,222.696152 189.011383,222.856964 
	C187.238861,232.294678 180.617218,235.935104 171.958557,237.261810 
	C170.338608,237.510025 168.829422,238.561066 167.213364,238.741135 
	C159.142487,239.640472 155.717651,244.903488 154.132629,252.741425 
	C182.005188,249.432953 209.719070,243.499268 238.128036,251.120056 
	C237.517792,252.855881 237.124619,254.228897 236.564026,255.529770 
	C230.247925,270.187073 223.905243,284.832916 217.572800,299.483185 
	C217.045425,300.703278 216.193146,301.902283 216.080978,303.163513 
	C215.251831,312.485016 209.102859,316.175262 200.968567,318.381653 
	C195.698868,319.811066 190.676270,322.150238 185.540588,324.075470 
	C182.122849,325.356720 180.052750,327.614594 180.002731,331.747620 
	C185.942383,332.842285 191.797058,333.921295 198.121155,335.086792 
	C191.071655,348.047791 182.462891,359.340240 173.236649,370.267792 
	C158.462875,387.765839 138.448669,397.949585 119.129280,408.878662 
	C108.527351,414.876221 96.654259,418.629791 85.337494,423.354858 
	C84.434875,423.731750 83.410118,423.871643 82.426285,423.990265 
	C66.898575,425.861755 59.915283,419.348236 61.824646,403.777161 
	C62.808239,395.755859 64.373291,387.547333 67.329453,380.077911 
	C74.466949,362.043549 82.576912,344.394043 90.972992,326.587280 
	C99.641014,352.160675 114.075157,370.910980 142.687042,375.019165 
M347.508453,354.872742 
	C348.610992,354.565521 349.817200,354.448975 350.797119,353.916260 
	C354.078064,352.132385 355.596588,349.348724 354.551117,345.647736 
	C353.530975,342.036407 350.702667,339.435425 347.259857,340.396912 
	C344.583832,341.144257 341.314667,343.866638 340.533203,346.397827 
	C339.146118,350.890533 342.313995,353.727509 347.508453,354.872742 
M154.501129,354.872101 
	C155.608521,354.572845 156.842499,354.491302 157.800156,353.934509 
	C160.986893,352.081818 162.615387,349.308411 161.456863,345.611847 
	C160.357559,342.104248 157.823395,339.963837 154.045181,340.195740 
	C150.313400,340.424835 147.774246,342.705536 147.260147,346.367462 
	C146.593811,351.113739 149.285538,353.767792 154.501129,354.872101 
M340.310791,156.007492 
	C341.701630,160.215195 344.747711,162.804504 348.916473,161.323288 
	C351.344391,160.460617 354.339752,157.310959 354.494629,155.015854 
	C354.652832,152.671844 352.193665,149.188126 349.913544,147.846512 
	C345.399963,145.190796 341.141479,148.731552 340.310791,156.007492 
M149.029327,149.559174 
	C146.177139,154.724609 146.913452,158.994431 151.137253,160.917068 
	C154.510696,162.452606 157.713577,161.974777 160.102249,159.032379 
	C162.653778,155.889389 162.471436,152.409409 159.791794,149.543762 
	C156.744629,146.285095 153.122574,146.333603 149.029327,149.559174 
M372.848053,190.252548 
	C368.747192,193.994781 367.788544,197.697784 370.330322,200.947021 
	C372.739594,204.026886 375.976990,205.068420 379.554993,203.250473 
	C383.091278,201.453781 384.470184,198.362259 383.088409,194.540894 
	C381.454132,190.021103 378.043732,188.768311 372.848053,190.252548 
M190.109894,122.672615 
	C188.890381,126.384308 189.414703,130.004883 192.985077,131.660202 
	C195.149872,132.663864 198.810654,132.732773 200.650391,131.502899 
	C202.500992,130.265747 203.925797,126.792107 203.679459,124.497948 
	C203.462357,122.475830 201.022781,120.041557 198.955978,119.016609 
	C195.594345,117.349541 192.576660,118.960999 190.109894,122.672615 
M132.939499,306.201660 
	C132.365814,299.836365 127.468658,295.833832 122.989128,298.654388 
	C120.789993,300.039062 118.518135,303.668945 118.799965,305.974640 
	C119.086525,308.318939 122.115814,311.337646 124.583809,312.174622 
	C128.518845,313.509094 131.416107,310.892578 132.939499,306.201660 
M371.081757,298.524536 
	C370.963287,299.678070 370.656433,300.848816 370.760071,301.982025 
	C371.140350,306.139832 373.754669,308.250580 377.682678,308.492798 
	C381.528625,308.729950 384.049896,306.533936 384.908539,302.902405 
	C385.844604,298.943359 384.069427,295.918427 380.383362,294.486328 
	C376.607971,293.019562 373.584656,294.585693 371.081757,298.524536 
M303.924103,383.402954 
	C309.345245,383.217621 312.384796,380.861908 312.414032,376.609375 
	C312.441437,372.626862 310.340302,369.909637 306.520813,369.149017 
	C302.653534,368.378815 299.702209,370.241364 298.270813,373.896912 
	C296.761017,377.752716 298.546844,380.889648 303.924103,383.402954 
M130.925385,198.133469 
	C129.208725,194.523087 126.184586,192.464951 122.500366,193.841736 
	C120.266609,194.676468 117.893799,197.202194 117.140068,199.482712 
	C115.786804,203.577209 119.101173,207.552017 123.287628,207.978043 
	C128.177856,208.475677 131.152100,205.022293 130.925385,198.133469 
M293.996185,124.404060 
	C295.521423,129.990021 299.087219,132.406784 303.660278,130.953995 
	C307.556458,129.716248 310.089264,124.756378 307.775116,121.337097 
	C306.344910,119.223915 303.240448,117.339935 300.711426,117.082207 
	C296.728729,116.676346 294.518433,119.642815 293.996185,124.404060 
M382.454163,245.821060 
	C378.757538,251.416794 380.516541,257.704620 386.246368,257.870361 
	C388.819275,257.944794 392.537292,256.040283 393.757355,253.903946 
	C394.818237,252.046356 393.900055,248.004242 392.415405,245.989319 
	C390.071350,242.808060 386.372070,243.041855 382.454163,245.821060 
M120.949417,247.682159 
	C118.388977,243.692871 114.917702,242.601929 110.739243,244.854767 
	C107.504578,246.598770 106.334450,251.107986 108.126785,254.438782 
	C109.959114,257.843842 113.033607,258.809753 116.601830,257.911438 
	C120.535454,256.921112 122.161812,253.354462 120.949417,247.682159 
M254.294296,393.921265 
	C258.360046,390.566986 259.421356,387.076691 257.104858,383.684723 
	C254.891266,380.443451 251.825409,379.128845 248.024567,380.904022 
	C244.280731,382.652649 243.138901,385.793945 244.059982,389.619751 
	C244.997696,393.514648 248.661499,395.190216 254.294296,393.921265 
M252.888443,121.584167 
	C253.885513,121.001968 255.042999,120.586220 255.850891,119.807693 
	C258.772888,116.991928 259.025726,113.675301 256.914551,110.344093 
	C254.583160,106.665405 250.452515,106.650398 247.673019,108.367691 
	C245.613098,109.640381 244.002899,113.524307 244.182068,116.106995 
	C244.468292,120.232590 247.957397,121.993919 252.888443,121.584167 
z" data-index="1" style="opacity: 1; visibility: visible;"></path>
<path fill="#FF9859" opacity="1.000000" stroke="none" d="
M294.997314,25.942623 
	C298.829132,25.943270 302.194183,26.243769 305.487854,25.886515 
	C314.200256,24.941504 319.531982,31.945660 320.716858,37.471443 
	C322.473083,45.661911 318.922760,52.594437 311.383209,55.742477 
	C310.771820,55.997753 310.125458,56.169209 309.112427,56.507469 
	C309.112427,60.348965 309.112427,64.301491 309.112427,68.982666 
	C306.453644,68.151321 304.345032,67.491997 301.848999,66.711540 
	C301.848999,63.480740 301.848999,60.375683 301.848999,56.999939 
	C298.802460,56.999939 296.214264,56.999939 293.228485,56.999939 
	C293.013306,59.156269 292.805603,61.238003 292.600616,63.292336 
	C286.528076,64.043503 285.974609,63.617844 284.939148,57.137417 
	C261.155151,57.137417 237.301163,57.137417 213.475479,57.137417 
	C212.185455,64.241669 212.185455,64.241669 205.853607,65.675217 
	C205.625046,62.914101 205.400742,60.204720 205.144943,57.114578 
	C202.473801,57.114578 199.920044,57.114578 197.198792,57.114578 
	C195.082397,61.839695 200.386993,70.784142 189.459549,70.503181 
	C189.374619,69.235252 189.232941,67.947617 189.211609,66.657990 
	C189.122147,61.252270 190.566147,55.904217 182.808121,53.243530 
	C177.539032,51.436440 175.990219,42.226974 178.029678,35.774620 
	C179.918488,29.798903 185.076172,25.968803 191.523209,25.963293 
	C225.848114,25.933962 260.173065,25.945353 294.997314,25.942623 
M249.500000,32.901848 
	C235.511459,32.901859 221.522903,32.898163 207.534363,32.903763 
	C202.205673,32.905895 196.870026,32.765251 191.550354,32.991268 
	C186.654053,33.199299 184.613251,35.924114 184.700974,41.455482 
	C184.784760,46.737015 186.780563,49.035439 191.640564,49.255943 
	C194.133484,49.369053 196.635559,49.282543 199.133499,49.282574 
	C234.437943,49.282978 269.742432,49.249744 305.046722,49.327339 
	C309.144867,49.336342 312.265747,48.370499 313.558350,44.094212 
	C315.426666,37.913410 311.950470,32.961136 305.454895,32.932884 
	C287.136902,32.853199 268.818329,32.902985 249.500000,32.901848 
z" data-index="2" style="visibility: visible; opacity: 1;"></path>
<path fill="#F2F3F8" opacity="1.000000" stroke="none" d="
M347.124725,354.864014 
	C342.313995,353.727509 339.146118,350.890533 340.533203,346.397827 
	C341.314667,343.866638 344.583832,341.144257 347.259857,340.396912 
	C350.702667,339.435425 353.530975,342.036407 354.551117,345.647736 
	C355.596588,349.348724 354.078064,352.132385 350.797119,353.916260 
	C349.817200,354.448975 348.610992,354.565521 347.124725,354.864014 
z" data-index="3" style="opacity: 1;"></path>
<path fill="#F3F3F8" opacity="1.000000" stroke="none" d="
M154.117004,354.864105 
	C149.285538,353.767792 146.593811,351.113739 147.260147,346.367462 
	C147.774246,342.705536 150.313400,340.424835 154.045181,340.195740 
	C157.823395,339.963837 160.357559,342.104248 161.456863,345.611847 
	C162.615387,349.308411 160.986893,352.081818 157.800156,353.934509 
	C156.842499,354.491302 155.608521,354.572845 154.117004,354.864105 
z" data-index="4" style="opacity: 1;"></path>
<path fill="#F3F3F8" opacity="1.000000" stroke="none" d="
M340.240662,155.631592 
	C341.141479,148.731552 345.399963,145.190796 349.913544,147.846512 
	C352.193665,149.188126 354.652832,152.671844 354.494629,155.015854 
	C354.339752,157.310959 351.344391,160.460617 348.916473,161.323288 
	C344.747711,162.804504 341.701630,160.215195 340.240662,155.631592 
z" data-index="5" style="visibility: visible;"></path>
<path fill="#F3F4F9" opacity="1.000000" stroke="none" d="
M149.292740,149.278168 
	C153.122574,146.333603 156.744629,146.285095 159.791794,149.543762 
	C162.471436,152.409409 162.653778,155.889389 160.102249,159.032379 
	C157.713577,161.974777 154.510696,162.452606 151.137253,160.917068 
	C146.913452,158.994431 146.177139,154.724609 149.292740,149.278168 
z" data-index="6" style="visibility: visible;"></path>
<path fill="#F9F9FC" opacity="1.000000" stroke="none" d="
M373.202576,190.130188 
	C378.043732,188.768311 381.454132,190.021103 383.088409,194.540894 
	C384.470184,198.362259 383.091278,201.453781 379.554993,203.250473 
	C375.976990,205.068420 372.739594,204.026886 370.330322,200.947021 
	C367.788544,197.697784 368.747192,193.994781 373.202576,190.130188 
z" data-index="7" style="visibility: visible;"></path>
<path fill="#F8F8FB" opacity="1.000000" stroke="none" d="
M190.285248,122.348679 
	C192.576660,118.960999 195.594345,117.349541 198.955978,119.016609 
	C201.022781,120.041557 203.462357,122.475830 203.679459,124.497948 
	C203.925797,126.792107 202.500992,130.265747 200.650391,131.502899 
	C198.810654,132.732773 195.149872,132.663864 192.985077,131.660202 
	C189.414703,130.004883 188.890381,126.384308 190.285248,122.348679 
z" data-index="8"></path>
<path fill="#F9F9FC" opacity="1.000000" stroke="none" d="
M132.869354,306.586182 
	C131.416107,310.892578 128.518845,313.509094 124.583809,312.174622 
	C122.115814,311.337646 119.086525,308.318939 118.799965,305.974640 
	C118.518135,303.668945 120.789993,300.039062 122.989128,298.654388 
	C127.468658,295.833832 132.365814,299.836365 132.869354,306.586182 
z" data-index="9" style="opacity: 1; visibility: visible;"></path>
<path fill="#F8F9FB" opacity="1.000000" stroke="none" d="
M371.233093,298.189148 
	C373.584656,294.585693 376.607971,293.019562 380.383362,294.486328 
	C384.069427,295.918427 385.844604,298.943359 384.908539,302.902405 
	C384.049896,306.533936 381.528625,308.729950 377.682678,308.492798 
	C373.754669,308.250580 371.140350,306.139832 370.760071,301.982025 
	C370.656433,300.848816 370.963287,299.678070 371.233093,298.189148 
z" data-index="10" style="opacity: 1;"></path>
<path fill="#FAFAFC" opacity="1.000000" stroke="none" d="
M303.563049,383.306458 
	C298.546844,380.889648 296.761017,377.752716 298.270813,373.896912 
	C299.702209,370.241364 302.653534,368.378815 306.520813,369.149017 
	C310.340302,369.909637 312.441437,372.626862 312.414032,376.609375 
	C312.384796,380.861908 309.345245,383.217621 303.563049,383.306458 
z" data-index="11" style="opacity: 1;"></path>
<path fill="#F8F9FB" opacity="1.000000" stroke="none" d="
M131.001495,198.533295 
	C131.152100,205.022293 128.177856,208.475677 123.287628,207.978043 
	C119.101173,207.552017 115.786804,203.577209 117.140068,199.482712 
	C117.893799,197.202194 120.266609,194.676468 122.500366,193.841736 
	C126.184586,192.464951 129.208725,194.523087 131.001495,198.533295 
z" data-index="12" style="visibility: visible;"></path>
<path fill="#F8F9FB" opacity="1.000000" stroke="none" d="
M293.996094,124.008926 
	C294.518433,119.642815 296.728729,116.676346 300.711426,117.082207 
	C303.240448,117.339935 306.344910,119.223915 307.775116,121.337097 
	C310.089264,124.756378 307.556458,129.716248 303.660278,130.953995 
	C299.087219,132.406784 295.521423,129.990021 293.996094,124.008926 
z" data-index="13"></path>
<path fill="#FAFAFC" opacity="1.000000" stroke="none" d="
M382.748291,245.555176 
	C386.372070,243.041855 390.071350,242.808060 392.415405,245.989319 
	C393.900055,248.004242 394.818237,252.046356 393.757355,253.903946 
	C392.537292,256.040283 388.819275,257.944794 386.246368,257.870361 
	C380.516541,257.704620 378.757538,251.416794 382.748291,245.555176 
z" data-index="14" style="visibility: visible; opacity: 1;"></path>
<path fill="#F9F9FC" opacity="1.000000" stroke="none" d="
M121.077194,248.047653 
	C122.161812,253.354462 120.535454,256.921112 116.601830,257.911438 
	C113.033607,258.809753 109.959114,257.843842 108.126785,254.438782 
	C106.334450,251.107986 107.504578,246.598770 110.739243,244.854767 
	C114.917702,242.601929 118.388977,243.692871 121.077194,248.047653 
z" data-index="15" style="visibility: visible;"></path>
<path fill="#F9FAFC" opacity="1.000000" stroke="none" d="
M253.941193,394.083557 
	C248.661499,395.190216 244.997696,393.514648 244.059982,389.619751 
	C243.138901,385.793945 244.280731,382.652649 248.024567,380.904022 
	C251.825409,379.128845 254.891266,380.443451 257.104858,383.684723 
	C259.421356,387.076691 258.360046,390.566986 253.941193,394.083557 
z" data-index="16" style="opacity: 1;"></path>
<path fill="#FBFBFD" opacity="1.000000" stroke="none" d="
M252.513794,121.684860 
	C247.957397,121.993919 244.468292,120.232590 244.182068,116.106995 
	C244.002899,113.524307 245.613098,109.640381 247.673019,108.367691 
	C250.452515,106.650398 254.583160,106.665405 256.914551,110.344093 
	C259.025726,113.675301 258.772888,116.991928 255.850891,119.807693 
	C255.042999,120.586220 253.885513,121.001968 252.513794,121.684860 
z" data-index="17" style="opacity: 1;"></path>

</svg>