<?xml version="1.0" encoding="UTF-8"?>
<!DOCTYPE svg PUBLIC "-//W3C//DTD SVG 1.1//EN" "http://www.w3.org/Graphics/SVG/1.1/DTD/svg11.dtd">
<svg xmlns="http://www.w3.org/2000/svg" version="1.1" width="597px" height="370px" style="shape-rendering:geometricPrecision; text-rendering:geometricPrecision; image-rendering:optimizeQuality; fill-rule:evenodd; clip-rule:evenodd" xmlns:xlink="http://www.w3.org/1999/xlink">
<g><path style="opacity:1" fill="#f4edd5" d="M 421.5,-0.5 C 479.833,-0.5 538.167,-0.5 596.5,-0.5C 596.5,91.5 596.5,183.5 596.5,275.5C 593.991,274.079 591.657,272.412 589.5,270.5C 567.12,252.127 543.12,235.961 517.5,222C 496.989,211.853 475.989,210.853 454.5,219C 446.347,222.215 438.347,225.715 430.5,229.5C 428.745,228.208 426.745,227.208 424.5,226.5C 424.709,225.914 425.043,225.414 425.5,225C 421.918,224.405 421.584,223.071 424.5,221C 423.809,219.933 423.309,218.766 423,217.5C 421.951,218.517 420.784,218.684 419.5,218C 420.167,217.667 420.833,217.333 421.5,217C 418.982,213.987 415.982,211.487 412.5,209.5C 413.034,207.386 414.034,205.552 415.5,204C 413.219,202.149 413.219,200.482 415.5,199C 414.939,197.324 413.939,195.991 412.5,195C 413.167,194.667 413.833,194.333 414.5,194C 414.499,192.601 414.165,191.101 413.5,189.5C 416.128,187.874 418.461,185.874 420.5,183.5C 420.835,185.003 420.835,186.336 420.5,187.5C 421.425,186.359 422.259,186.359 423,187.5C 424.852,185.77 424.686,184.604 422.5,184C 423.766,183.691 424.933,183.191 426,182.5C 425.383,184.095 425.716,185.428 427,186.5C 427.778,184.416 428.945,182.583 430.5,181C 427.712,178.626 428.046,177.293 431.5,177C 430.167,176.333 428.833,175.667 427.5,175C 430.544,174.641 430.878,173.974 428.5,173C 430.218,172.654 431.885,172.154 433.5,171.5C 433.132,173.506 433.632,175.506 435,177.5C 437.074,174.863 436.907,172.363 434.5,170C 436.333,166.833 438.833,164.333 442,162.5C 443.779,165.276 444.779,164.943 445,161.5C 446.676,162.061 448.009,163.061 449,164.5C 451.19,164.153 453.023,162.82 454.5,160.5C 456.815,161.234 458.648,162.568 460,164.5C 460.317,162.699 460.984,162.366 462,163.5C 464.021,160.714 465.521,161.047 466.5,164.5C 469.988,162.041 472.488,163.041 474,167.5C 475,167.5 476,167.5 477,167.5C 478.852,169.23 478.686,170.396 476.5,171C 477.448,171.483 478.448,171.649 479.5,171.5C 479.596,167.689 480.262,167.689 481.5,171.5C 481.833,170.833 482.167,170.167 482.5,169.5C 483.192,170.025 483.692,170.692 484,171.5C 485.337,169.996 487.004,168.996 489,168.5C 489.333,169.167 489.667,169.833 490,170.5C 491.177,168.824 492.677,167.491 494.5,166.5C 492.433,165.866 490.6,164.866 489,163.5C 488.383,164.449 488.549,165.282 489.5,166C 488.725,167.23 487.725,167.563 486.5,167C 487.249,165.266 487.749,163.433 488,161.5C 488.654,162.696 489.154,162.696 489.5,161.5C 479.272,160.182 469.106,160.182 459,161.5C 458.005,160.934 457.172,160.267 456.5,159.5C 472.167,159.5 487.833,159.5 503.5,159.5C 503.5,158.167 503.5,156.833 503.5,155.5C 505.288,155.785 506.955,155.452 508.5,154.5C 507.833,154.167 507.167,153.833 506.5,153.5C 508.725,152.106 511.058,150.94 513.5,150C 511.706,148.527 510.04,147.694 508.5,147.5C 508.758,145.424 509.258,143.091 510,140.5C 510.556,142.595 511.056,142.762 511.5,141C 510.561,139.056 509.227,137.389 507.5,136C 509.256,135.86 510.922,136.36 512.5,137.5C 512.533,138.989 513.033,140.322 514,141.5C 516.43,141.383 518.93,140.716 521.5,139.5C 521.649,138.448 521.483,137.448 521,136.5C 518.692,135.359 516.859,133.692 515.5,131.5C 515.81,133.201 515.31,134.868 514,136.5C 510.952,135.217 510.785,133.551 513.5,131.5C 511.467,129.548 511.134,127.382 512.5,125C 510.775,124.135 509.108,123.469 507.5,123C 508.5,122.667 509.5,122.333 510.5,122C 508.527,120.027 506.527,118.027 504.5,116C 505.5,115.667 506.5,115.333 507.5,115C 505.337,114.755 503.67,113.755 502.5,112C 507.979,112.128 508.312,111.128 503.5,109C 504.833,108.333 504.833,107.667 503.5,107C 502.551,106.383 501.718,106.549 501,107.5C 500.667,106.833 500.333,106.167 500,105.5C 499.333,106.833 498.667,108.167 498,109.5C 497.821,107.576 497.654,105.909 497.5,104.5C 496.353,106.765 496.186,109.098 497,111.5C 498.303,112.112 499.47,112.446 500.5,112.5C 499.221,114.146 497.555,115.313 495.5,116C 496.791,118.09 496.124,119.424 493.5,120C 493.982,121.008 494.148,122.175 494,123.5C 494.925,124.047 495.758,124.713 496.5,125.5C 495.132,126.594 493.965,126.26 493,124.5C 492.667,124.833 492.333,125.167 492,125.5C 491.316,124.216 491.483,123.049 492.5,122C 492.167,121.833 491.833,121.667 491.5,121.5C 490.749,122.376 490.249,123.376 490,124.5C 489.333,122.833 489.333,121.167 490,119.5C 490.333,119.833 490.667,120.167 491,120.5C 491.9,119.23 493.066,118.23 494.5,117.5C 490.227,116.532 490.56,115.365 495.5,114C 494.333,113.5 493.5,112.667 493,111.5C 491.701,114.417 489.867,116.917 487.5,119C 488.517,120.049 488.684,121.216 488,122.5C 485.991,120.99 484.158,119.323 482.5,117.5C 483.09,116.201 484.09,115.368 485.5,115C 484.214,112.978 483.214,110.811 482.5,108.5C 482.977,107.522 483.643,106.689 484.5,106C 482.699,105.683 482.366,105.016 483.5,104C 482.833,103.333 482.167,103.333 481.5,104C 480.599,109.297 478.266,110.297 474.5,107C 476.657,105.915 476.824,104.749 475,103.5C 474.333,102.167 474.333,100.833 475,99.5C 476.667,99.5 478.333,99.5 480,99.5C 481,100.5 482,101.5 483,102.5C 484.171,101.107 485.671,100.273 487.5,100C 484.5,99.6667 482.833,98 482.5,95C 484.64,94.0267 486.307,92.5267 487.5,90.5C 490.044,91.7348 490.044,92.9015 487.5,94C 491.661,97.1244 492.995,96.4578 491.5,92C 493.878,91.0255 493.544,90.3589 490.5,90C 491.87,88.5587 492.87,86.892 493.5,85C 494.951,85.2626 496.284,85.0959 497.5,84.5C 493.782,83.1322 490.449,81.1322 487.5,78.5C 488.167,78.1667 488.833,77.8333 489.5,77.5C 487.983,75.8149 486.316,74.3149 484.5,73C 485.956,72.5774 486.456,71.7441 486,70.5C 482.89,71.6734 482.723,71.1734 485.5,69C 484.175,69.1484 483.008,68.9817 482,68.5C 481.683,70.3008 481.016,70.6341 480,69.5C 479.626,68.5838 479.126,67.7504 478.5,67C 482.74,62.9758 482.406,62.1424 477.5,64.5C 475.202,62.5147 475.368,60.5147 478,58.5C 478.718,59.4506 479.551,59.6172 480.5,59C 479.377,57.9563 478.044,57.2896 476.5,57C 477.167,56.6667 477.833,56.3333 478.5,56C 477.216,55.3162 476.049,55.4829 475,56.5C 473.249,52.4747 470.583,52.4747 467,56.5C 466.085,55.6721 465.419,54.6721 465,53.5C 465.333,56.1667 465.667,58.8333 466,61.5C 465.077,60.2412 464.243,58.9079 463.5,57.5C 463.705,61.2653 462.872,61.2653 461,57.5C 460.667,58.5 460.333,59.5 460,60.5C 459.667,60.1667 459.333,59.8333 459,59.5C 458.493,60.9961 458.993,62.1627 460.5,63C 458.591,63.4479 457.424,62.6145 457,60.5C 456.333,62.1667 456.333,63.8333 457,65.5C 459.263,64.4113 461.096,65.078 462.5,67.5C 462.192,68.3081 461.692,68.9747 461,69.5C 459.174,67.9262 457.007,67.0929 454.5,67C 455.246,64.9068 455.579,62.9068 455.5,61C 453.609,60.6913 452.275,61.5247 451.5,63.5C 450.692,63.1924 450.025,62.6924 449.5,62C 452.129,60.1512 452.629,57.9845 451,55.5C 450.261,56.5742 449.261,57.2409 448,57.5C 446.578,56.7948 445.245,56.4615 444,56.5C 443.685,57.9078 444.018,59.2411 445,60.5C 446.049,59.4829 447.216,59.3162 448.5,60C 445.906,64.0659 442.906,64.3992 439.5,61C 440.167,60.3333 440.833,59.6667 441.5,59C 439.913,58.1376 438.246,57.4709 436.5,57C 439.06,56.773 440.726,55.4397 441.5,53C 438.972,51.6841 438.972,50.5174 441.5,49.5C 441.023,48.5224 440.357,47.6891 439.5,47C 442.08,45.5186 442.913,43.352 442,40.5C 441.107,41.7112 440.274,41.7112 439.5,40.5C 441.469,38.579 442.969,38.579 444,40.5C 444.692,39.9747 445.192,39.3081 445.5,38.5C 443.922,37.7022 442.256,37.2022 440.5,37C 441.191,35.9326 441.691,34.7659 442,33.5C 442.333,33.8333 442.667,34.1667 443,34.5C 443.667,33.1667 444.667,32.1667 446,31.5C 447.462,33.7076 449.295,34.3742 451.5,33.5C 455.842,37.5031 456.175,41.0031 452.5,44C 454.723,44.6517 455.89,46.1517 456,48.5C 457.333,49.1667 458.333,50.1667 459,51.5C 459.308,50.6919 459.808,50.0253 460.5,49.5C 461.258,50.8114 462.258,51.3114 463.5,51C 464.167,49.6667 465.167,48.6667 466.5,48C 464.582,45.0723 461.915,43.4057 458.5,43C 459.536,41.3831 460.703,41.2164 462,42.5C 462.667,40.8333 462.667,39.1667 462,37.5C 461.667,38.5 461.333,39.5 461,40.5C 459.416,39.1387 457.582,38.472 455.5,38.5C 456.333,34.6335 456,30.8001 454.5,27C 455.717,24.1957 457.384,23.5291 459.5,25C 458.833,25.3333 458.167,25.6667 457.5,26C 457.968,27.9856 457.968,29.8189 457.5,31.5C 458.72,30.2889 459.887,30.2889 461,31.5C 461.667,28.8333 462.333,28.8333 463,31.5C 463.5,31 464,30.5 464.5,30C 462.202,26.9182 459.869,23.7515 457.5,20.5C 459.854,17.6097 459.354,15.2763 456,13.5C 455.289,15.3668 455.789,16.8668 457.5,18C 454.26,18.4416 452.427,16.9416 452,13.5C 451.085,14.3279 450.419,15.3279 450,16.5C 449.792,14.141 449.626,11.9743 449.5,10C 452.849,9.91093 453.349,8.74426 451,6.5C 450.333,7.83333 449.667,7.83333 449,6.5C 448.333,2.5 447.667,2.5 447,6.5C 445.355,6.30683 443.521,6.14017 441.5,6C 442.654,5.0862 442.487,4.25286 441,3.5C 440.51,4.79323 440.343,6.12656 440.5,7.5C 443.48,7.24109 445.313,8.57442 446,11.5C 446.914,10.3463 447.747,10.513 448.5,12C 446.924,12.4396 445.59,13.273 444.5,14.5C 444.81,12.7988 444.31,11.1322 443,9.5C 440.772,10.2993 439.439,9.2993 439,6.5C 438.16,9.46367 437.16,9.797 436,7.5C 434.16,8.83314 433.66,8.66647 434.5,7C 431.876,6.42357 431.209,5.09024 432.5,3C 430.609,-0.417657 429.275,-0.250991 428.5,3.5C 428.846,4.69559 429.346,4.69559 430,3.5C 430.667,5.16667 430.667,6.83333 430,8.5C 429,7.16667 428,7.16667 427,8.5C 427.409,6.77489 427.242,5.10822 426.5,3.5C 425.758,5.34973 424.758,6.0164 423.5,5.5C 424.025,6.19238 424.692,6.69238 425.5,7C 425.018,8.00836 424.852,9.17503 425,10.5C 424.333,9.16667 423.667,9.16667 423,10.5C 422.707,7.04575 421.374,6.71242 419,9.5C 418.333,7.83333 418.333,6.16667 419,4.5C 419.654,5.69559 420.154,5.69559 420.5,4.5C 419.833,3.5 419.167,2.5 418.5,1.5C 418.938,0.493667 419.604,0.493667 420.5,1.5C 421.298,1.04311 421.631,0.376442 421.5,-0.5 Z"/></g>
<g><path style="opacity:1" fill="#f4edd5" d="M -0.5,-0.5 C 2.83333,-0.5 6.16667,-0.5 9.5,-0.5C 5.11991,2.83698 3.78657,6.83698 5.5,11.5C 4.83333,12.1667 4.16667,12.8333 3.5,13.5C 5.41609,15.3173 7.74942,16.484 10.5,17C 11.3366,18.0113 11.67,19.1779 11.5,20.5C 7.77874,20.7926 7.94541,21.4593 12,22.5C 14.0364,22.0464 15.8697,21.2131 17.5,20C 16.451,19.5078 15.451,19.6744 14.5,20.5C 12.5387,19.1521 12.3721,17.8187 14,16.5C 14.6259,18.9913 15.4593,18.9913 16.5,16.5C 17.7946,17.0983 19.1279,17.5983 20.5,18C 20.6198,19.7125 20.4531,21.5458 20,23.5C 21.2547,22.7894 22.4214,21.956 23.5,21C 23.1528,19.4313 22.9861,17.598 23,15.5C 24.1096,13.9632 25.6096,13.2965 27.5,13.5C 27.5,12.1667 27.5,10.8333 27.5,9.5C 28.9778,9.23798 30.3112,9.57131 31.5,10.5C 30.8333,10.8333 30.1667,11.1667 29.5,11.5C 29.7093,12.086 30.0426,12.586 30.5,13C 25.3708,14.8598 25.3708,15.5264 30.5,15C 32.6297,11.734 34.2964,12.0673 35.5,16C 34.9389,17.676 33.9389,19.0094 32.5,20C 33.1667,21.3333 33.8333,22.6667 34.5,24C 33.3333,24.5 32.5,25.3333 32,26.5C 31.7104,24.9559 31.0437,23.6226 30,22.5C 28.1759,23.7487 28.3426,24.9153 30.5,26C 28.7295,26.5354 28.3961,27.3687 29.5,28.5C 31.9028,29.7044 34.2362,30.0378 36.5,29.5C 34.2524,28.676 34.0858,27.676 36,26.5C 37.7713,27.3041 39.2713,28.4708 40.5,30C 38.842,30.7253 38.342,31.892 39,33.5C 40.9427,33.0411 42.276,34.0411 43,36.5C 43.3333,35.8333 43.6667,35.1667 44,34.5C 45.0084,34.9817 46.175,35.1484 47.5,35C 46.6721,35.9147 45.6721,36.5814 44.5,37C 45.1905,38.0674 45.6905,39.2341 46,40.5C 46.3333,39.8333 46.6667,39.1667 47,38.5C 47.6667,39.8333 48.3333,39.8333 49,38.5C 50.8399,40.4536 51.6732,42.4536 51.5,44.5C 52.2811,43.2713 52.7811,41.938 53,40.5C 53.414,40.9574 53.914,41.2907 54.5,41.5C 55.8498,39.2652 57.3498,37.9319 59,37.5C 62.462,40.0801 62.962,43.4135 60.5,47.5C 59.2634,48.2807 58.2634,49.2807 57.5,50.5C 58.2472,50.7365 59.0805,51.0698 60,51.5C 60.3333,50.8333 60.6667,50.1667 61,49.5C 61.3603,51.4211 62.1936,53.0878 63.5,54.5C 62.1745,54.2052 60.8412,54.7052 59.5,56C 61.8912,57.3086 61.8912,58.3086 59.5,59C 61.4025,59.1992 62.9025,60.0325 64,61.5C 65.8254,60.8971 67.6587,60.2304 69.5,59.5C 68.1103,57.8306 67.7769,56.1639 68.5,54.5C 70.3049,55.472 71.9716,56.6387 73.5,58C 73.9369,60.2173 73.9369,62.5506 73.5,65C 75.8961,65.866 76.5628,65.366 75.5,63.5C 78.4338,62.6708 78.7671,60.8375 76.5,58C 79.7008,57.4752 81.8674,55.3086 83,51.5C 84.0847,53.6574 85.2513,53.8241 86.5,52C 85.5494,51.2825 85.3828,50.4491 86,49.5C 87.5298,50.636 88.8631,51.636 90,52.5C 90.3333,51.5 90.6667,50.5 91,49.5C 92.3876,50.5536 93.8876,50.7203 95.5,50C 98.0822,49.1042 100.416,47.7708 102.5,46C 100.536,44.2056 99.036,44.7056 98,47.5C 97.7623,45.0158 97.0957,42.6824 96,40.5C 97,41.8333 98,41.8333 99,40.5C 99.5696,43.8438 100.736,44.1772 102.5,41.5C 104.167,42.8333 105.833,42.8333 107.5,41.5C 108.244,42.9905 108.91,44.4905 109.5,46C 110.167,46.6667 110.833,46.6667 111.5,46C 110.304,45.3457 110.304,44.8457 111.5,44.5C 112.251,45.376 112.751,46.376 113,47.5C 113.333,47.1667 113.667,46.8333 114,46.5C 115.009,48.0249 115.509,49.6916 115.5,51.5C 117.201,51.9662 118.701,51.9662 120,51.5C 120.974,53.8776 121.641,53.5443 122,50.5C 122.915,51.3279 123.581,52.3279 124,53.5C 124.249,52.376 124.749,51.376 125.5,50.5C 126.576,52.2875 127.243,54.2875 127.5,56.5C 128.088,54.3272 129.588,52.3272 132,50.5C 132.833,51.3333 133.667,52.1667 134.5,53C 133.427,54.2504 133.427,55.5838 134.5,57C 133.297,58.3685 132.297,59.8685 131.5,61.5C 132.33,63.1349 132.497,64.8016 132,66.5C 132.333,66.8333 132.667,67.1667 133,67.5C 133.483,66.552 133.649,65.552 133.5,64.5C 134.552,64.6495 135.552,64.4828 136.5,64C 135.112,63.1107 135.278,62.6107 137,62.5C 137.772,62.6448 138.439,62.9781 139,63.5C 139.308,62.6919 139.808,62.0253 140.5,61.5C 141.315,63.2759 142.482,63.9426 144,63.5C 144.333,64.8333 144.667,66.1667 145,67.5C 147.333,67.5 149.667,67.5 152,67.5C 152.862,69.087 153.529,70.7536 154,72.5C 156.113,70.7289 155.947,69.2289 153.5,68C 155.11,66.5053 156.776,66.3387 158.5,67.5C 159.745,66.0446 159.578,64.7113 158,63.5C 157.465,65.2705 156.631,65.6039 155.5,64.5C 156.859,62.694 156.525,61.194 154.5,60C 156.35,57.9672 157.016,57.9672 156.5,60C 158.18,60.0343 159.68,60.201 161,60.5C 161.333,59.8333 161.667,59.1667 162,58.5C 162.929,62.2441 162.429,65.7441 160.5,69C 162.481,69.6054 162.815,70.6054 161.5,72C 162.191,73.0674 162.691,74.2341 163,75.5C 164.614,74.977 166.114,73.6436 167.5,71.5C 168.967,71.723 170.467,72.0563 172,72.5C 173.022,71.646 173.855,70.646 174.5,69.5C 173.41,68.3914 173.41,67.3914 174.5,66.5C 175.95,67.8498 176.617,69.5165 176.5,71.5C 178.581,70.2804 180.581,69.6137 182.5,69.5C 184.434,69.9005 185.934,70.9005 187,72.5C 187.278,71.5842 187.778,70.9175 188.5,70.5C 189.151,71.8499 189.818,73.1833 190.5,74.5C 190.699,77.7133 190.365,80.7133 189.5,83.5C 191.5,84.5 193.5,85.5 195.5,86.5C 194.833,87.1667 194.167,87.8333 193.5,88.5C 195.122,90.4386 196.956,90.772 199,89.5C 199.333,90.5 199.667,91.5 200,92.5C 202.311,92.3937 204.811,91.8937 207.5,91C 203.318,91.0033 201.651,89.17 202.5,85.5C 201.092,84.7568 199.759,83.9234 198.5,83C 204.264,81.6174 209.264,82.7841 213.5,86.5C 213.167,87.1667 212.833,87.8333 212.5,88.5C 214.51,89.0653 216.176,90.0653 217.5,91.5C 208.126,96.6448 208.793,98.1448 219.5,96C 217.598,94.6062 217.265,92.7729 218.5,90.5C 219.873,90.6567 221.207,90.49 222.5,90C 225.031,88.5112 227.198,86.6778 229,84.5C 231.119,85.6508 232.953,87.1508 234.5,89C 235.448,89.4828 236.448,89.6495 237.5,89.5C 236.909,90.1515 236.243,90.8182 235.5,91.5C 236.487,95.3673 235.987,95.3673 234,91.5C 233.676,93.5689 232.842,93.9023 231.5,92.5C 230.692,92.8076 230.025,93.3076 229.5,94C 231.848,95.6884 232.015,97.5217 230,99.5C 228.984,98.3659 228.317,98.6992 228,100.5C 226.582,97.999 225.582,98.3323 225,101.5C 224.51,100.207 224.343,98.8734 224.5,97.5C 223.178,97.33 222.011,97.6634 221,98.5C 220.86,101.281 219.694,103.447 217.5,105C 218,105.5 218.5,106 219,106.5C 220.316,105.026 221.316,103.359 222,101.5C 222.5,102 223,102.5 223.5,103C 223.333,104.833 223.167,106.667 223,108.5C 224.117,107.051 224.784,105.384 225,103.5C 225.772,104.849 226.939,105.682 228.5,106C 224.534,107.612 224.534,109.279 228.5,111C 227.167,112.84 227.334,113.34 229,112.5C 229.359,115.544 230.026,115.878 231,113.5C 232.824,114.749 232.657,115.915 230.5,117C 230.833,117.333 231.167,117.667 231.5,118C 226.432,120.227 226.765,120.894 232.5,120C 231.095,121.269 229.429,121.769 227.5,121.5C 227.906,123.109 227.906,124.443 227.5,125.5C 226.858,122.203 225.691,121.869 224,124.5C 222.745,123.789 221.579,122.956 220.5,122C 222.937,120.721 223.437,119.221 222,117.5C 220.404,119.936 218.571,120.436 216.5,119C 217.325,117.312 218.325,117.145 219.5,118.5C 221.346,116.821 223.012,114.988 224.5,113C 222.68,111.193 221.513,109.027 221,106.5C 218.189,108.836 215.855,108.17 214,104.5C 213.026,106.878 212.359,106.544 212,103.5C 210.316,105.459 208.316,105.459 206,103.5C 205.833,103.833 205.667,104.167 205.5,104.5C 206.376,105.251 207.376,105.751 208.5,106C 206.775,106.865 205.108,107.531 203.5,108C 205.937,109.279 206.437,110.779 205,112.5C 203.333,111.167 201.667,109.833 200,108.5C 198.716,109.572 198.383,110.905 199,112.5C 197.703,111.216 196.536,111.383 195.5,113C 196.711,113.893 196.711,114.726 195.5,115.5C 193.452,114.917 191.619,114.917 190,115.5C 189.969,118.536 190.803,121.37 192.5,124C 191.509,125.677 190.509,127.343 189.5,129C 191.896,129.879 194.229,130.546 196.5,131C 194.081,133.526 194.747,135.36 198.5,136.5C 199.086,136.291 199.586,135.957 200,135.5C 200.311,136.742 199.811,137.742 198.5,138.5C 199.855,140.986 201.355,143.319 203,145.5C 204.762,145.056 204.595,144.556 202.5,144C 204.167,143.667 205.833,143.333 207.5,143C 203.5,142.333 203.5,141.667 207.5,141C 206.304,140.346 206.304,139.846 207.5,139.5C 208.624,144.721 209.458,144.721 210,139.5C 211.098,140.967 212.598,141.801 214.5,142C 213.333,142.5 212.5,143.333 212,144.5C 211.667,144.167 211.333,143.833 211,143.5C 209.933,144.191 208.766,144.691 207.5,145C 208.416,145.374 209.25,145.874 210,146.5C 212.012,146.475 214.012,146.475 216,146.5C 217.674,145.165 219.341,143.831 221,142.5C 222.205,143.071 223.372,143.738 224.5,144.5C 224.609,147.663 224.609,150.83 224.5,154C 225.362,156.734 226.195,156.901 227,154.5C 230.077,156.302 230.243,158.302 227.5,160.5C 228.083,162.002 228.916,163.335 230,164.5C 230.692,163.975 231.192,163.308 231.5,162.5C 230.515,160.902 230.349,159.235 231,157.5C 231.483,158.448 231.649,159.448 231.5,160.5C 233.582,160.528 235.416,159.861 237,158.5C 238,159.5 239,160.5 240,161.5C 241.067,159.717 242.567,159.217 244.5,160C 245.451,160.718 245.617,161.551 245,162.5C 244.333,163.833 243.667,163.833 243,162.5C 242.89,164.848 241.723,166.348 239.5,167C 242.37,168.08 245.203,169.247 248,170.5C 248.5,170.333 249,170.167 249.5,170C 246.159,168.472 246.159,166.472 249.5,164C 249.167,163.667 248.833,163.333 248.5,163C 250.809,162.244 252.809,162.744 254.5,164.5C 255.258,163.189 256.258,162.689 257.5,163C 257.167,163.333 256.833,163.667 256.5,164C 259.544,164.359 259.878,165.026 257.5,166C 258.833,166.667 258.833,167.333 257.5,168C 259.912,170.035 259.245,171.035 255.5,171C 257.059,173.642 256.725,175.975 254.5,178C 255.094,178.464 255.761,178.631 256.5,178.5C 253.107,180.572 250.774,183.572 249.5,187.5C 278.159,188.5 306.826,188.833 335.5,188.5C 337.694,187.877 339.861,187.543 342,187.5C 342.333,188.167 342.667,188.833 343,189.5C 343.423,188.044 344.256,187.544 345.5,188C 344.167,189 344.167,190 345.5,191C 343.926,191.336 342.592,192.169 341.5,193.5C 343.489,193.532 345.489,194.365 347.5,196C 347.653,197.209 347.986,198.375 348.5,199.5C 343.827,205.172 339.16,210.839 334.5,216.5C 334.507,212.337 334.34,208.004 334,203.5C 331.909,202.5 330.243,203.167 329,205.5C 326.473,209.221 324.473,213.221 323,217.5C 321.77,224.553 320.436,231.553 319,238.5C 313.015,246.979 306.515,254.979 299.5,262.5C 285.713,254.771 271.713,247.271 257.5,240C 243.768,233.419 229.435,231.753 214.5,235C 203.203,239.319 192.203,244.152 181.5,249.5C 180.833,249.5 180.167,249.5 179.5,249.5C 178.222,243.885 177.222,238.218 176.5,232.5C 186.411,233.765 192.244,229.432 194,219.5C 194.057,213.208 194.89,207.041 196.5,201C 194.168,195.987 191.001,191.487 187,187.5C 186.719,182.785 186.219,178.118 185.5,173.5C 190.166,166.161 193.166,158.161 194.5,149.5C 194.424,144.843 192.424,141.343 188.5,139C 173.951,135.519 162.451,140.019 154,152.5C 133.165,147.248 117.832,154.248 108,173.5C 104.255,183.285 105.088,192.618 110.5,201.5C 110.167,202.167 109.833,202.833 109.5,203.5C 103.584,210.011 101.084,217.678 102,226.5C 104.827,228.961 108.16,229.961 112,229.5C 117.786,229.293 123.286,227.959 128.5,225.5C 131.639,231.307 136.305,235.307 142.5,237.5C 142.5,240.833 142.5,244.167 142.5,247.5C 138.995,247.962 135.995,249.462 133.5,252C 130.305,252.181 127.305,252.681 124.5,253.5C 121.673,253.584 119.006,254.25 116.5,255.5C 98.6222,242.299 79.9555,241.133 60.5,252C 42.6131,264.782 23.6131,275.782 3.5,285C 2.20677,285.49 0.873441,285.657 -0.5,285.5C -0.5,190.167 -0.5,94.8333 -0.5,-0.5 Z"/></g>
<g><path style="opacity:1" fill="#f2ebd4" d="M 237.5,89.5 C 236.448,89.6495 235.448,89.4828 234.5,89C 232.953,87.1508 231.119,85.6508 229,84.5C 227.198,86.6778 225.031,88.5112 222.5,90C 221.207,90.49 219.873,90.6567 218.5,90.5C 217.265,92.7729 217.598,94.6062 219.5,96C 208.793,98.1448 208.126,96.6448 217.5,91.5C 216.176,90.0653 214.51,89.0653 212.5,88.5C 212.833,87.8333 213.167,87.1667 213.5,86.5C 209.264,82.7841 204.264,81.6174 198.5,83C 199.759,83.9234 201.092,84.7568 202.5,85.5C 201.651,89.17 203.318,91.0033 207.5,91C 204.811,91.8937 202.311,92.3937 200,92.5C 199.667,91.5 199.333,90.5 199,89.5C 196.956,90.772 195.122,90.4386 193.5,88.5C 194.167,87.8333 194.833,87.1667 195.5,86.5C 193.5,85.5 191.5,84.5 189.5,83.5C 190.365,80.7133 190.699,77.7133 190.5,74.5C 189.818,73.1833 189.151,71.8499 188.5,70.5C 188.082,69.7784 187.416,69.2784 186.5,69C 187.5,68.6667 188.5,68.3333 189.5,68C 188.506,66.6713 187.506,65.338 186.5,64C 187.167,63.3333 187.833,62.6667 188.5,62C 185.214,54.3952 179.381,50.2285 171,49.5C 168.605,51.9543 165.771,53.121 162.5,53C 161.978,52.4387 161.645,51.772 161.5,51C 162.384,49.902 163.384,49.402 164.5,49.5C 163.624,48.7492 162.624,48.2492 161.5,48C 162.863,45.8707 162.529,45.3707 160.5,46.5C 159.328,46.0814 158.328,45.4147 157.5,44.5C 159.045,43.5481 160.712,43.2148 162.5,43.5C 162.719,42.325 162.386,41.325 161.5,40.5C 157.317,41.2134 153.984,43.2134 151.5,46.5C 152.04,47.7481 152.707,48.9148 153.5,50C 152.034,50.6355 150.7,51.4688 149.5,52.5C 147.885,51.846 146.218,51.346 144.5,51C 145.624,50.7508 146.624,50.2508 147.5,49.5C 145.078,48.2892 143.078,47.2892 141.5,46.5C 143.617,44.1692 146.284,43.0026 149.5,43C 146.755,40.0856 143.421,38.2523 139.5,37.5C 137.073,33.32 138.406,30.4866 143.5,29C 142.167,28.6667 140.833,28.3333 139.5,28C 141.956,25.9325 144.622,24.0992 147.5,22.5C 153.031,24.5769 157.697,26.9103 161.5,29.5C 162.014,31.6984 163.014,33.6984 164.5,35.5C 167.411,36.7924 169.244,35.7924 170,32.5C 171.84,33.8331 172.34,33.6665 171.5,32C 173.101,31.7266 174.601,31.2266 176,30.5C 177.399,31.2266 178.899,31.7266 180.5,32C 178.405,32.5556 178.238,33.0556 180,33.5C 180.945,33.0946 181.612,32.428 182,31.5C 184.093,34.2019 186.926,34.8686 190.5,33.5C 190.974,36.9872 192.808,37.9872 196,36.5C 202.72,36.5178 208.72,38.5178 214,42.5C 215.225,42.1377 216.391,41.6377 217.5,41C 217.167,40.6667 216.833,40.3333 216.5,40C 219.39,38.0622 222.056,35.8955 224.5,33.5C 227.37,33.768 230.037,32.768 232.5,30.5C 232.291,29.914 231.957,29.414 231.5,29C 234.924,27.3421 238.258,27.6754 241.5,30C 242.833,30.6667 242.833,31.3333 241.5,32C 242.685,33.353 244.019,34.5197 245.5,35.5C 244.96,36.7481 244.293,37.9148 243.5,39C 243.493,40.5827 243.826,42.2494 244.5,44C 243.833,44.6667 243.167,45.3333 242.5,46C 248.967,47.692 255.467,47.8587 262,46.5C 263.984,46.7413 265.817,47.4079 267.5,48.5C 272.032,47.8602 276.532,47.1935 281,46.5C 288.711,47.1488 296.378,47.1488 304,46.5C 304.739,47.5742 305.739,48.2409 307,48.5C 309.135,47.8729 311.302,47.3729 313.5,47C 314.071,45.7949 314.738,44.6283 315.5,43.5C 316.192,44.0253 316.692,44.6919 317,45.5C 318.391,43.2849 320.057,43.2849 322,45.5C 323.707,44.5415 325.541,43.8748 327.5,43.5C 331.682,43.5698 336.016,43.7365 340.5,44C 341.416,44.3742 342.25,44.8742 343,45.5C 345.068,44.6064 347.235,43.9397 349.5,43.5C 356.291,44.002 363.291,44.3353 370.5,44.5C 373.833,43.8333 377.167,43.1667 380.5,42.5C 381.883,45.0756 382.717,44.7423 383,41.5C 383.419,42.6721 384.085,43.6721 385,44.5C 388.511,43.2692 392.011,42.2692 395.5,41.5C 397.866,43.0822 399.866,42.7489 401.5,40.5C 402.769,42.1801 404.436,43.3468 406.5,44C 405.833,44.6667 405.167,45.3333 404.5,46C 407.875,46.0604 410.708,47.2271 413,49.5C 417.895,44.1795 422.228,44.5129 426,50.5C 426.333,50.1667 426.667,49.8333 427,49.5C 427.249,50.624 427.749,51.624 428.5,52.5C 428.833,51.1667 429.167,49.8333 429.5,48.5C 430.318,50.1083 430.985,51.7749 431.5,53.5C 429.954,54.684 428.287,55.684 426.5,56.5C 431.425,57.4291 431.758,59.0957 427.5,61.5C 429.078,62.2978 430.744,62.7978 432.5,63C 431.655,64.5581 432.321,65.5581 434.5,66C 433.577,68.0408 433.244,70.2075 433.5,72.5C 434.5,72.5 435.5,72.5 436.5,72.5C 436.63,69.7022 437.964,67.7022 440.5,66.5C 443.931,67.0149 447.264,67.8482 450.5,69C 448.744,69.2022 447.078,69.7022 445.5,70.5C 445.977,71.4776 446.643,72.3109 447.5,73C 445.5,73.6667 443.5,74.3333 441.5,75C 448.768,75.894 449.101,77.394 442.5,79.5C 443.744,81.1333 443.244,82.1333 441,82.5C 438.999,81.2772 438.165,79.7772 438.5,78C 436.782,77.654 435.115,77.154 433.5,76.5C 431.611,78.7998 430.277,81.4664 429.5,84.5C 427.29,85.9817 425.624,85.4817 424.5,83C 422.603,81.8903 420.77,81.7236 419,82.5C 417.383,81.1487 416.216,79.482 415.5,77.5C 414.28,78.7111 413.113,78.7111 412,77.5C 412.263,78.9506 412.096,80.2839 411.5,81.5C 410.914,81.2907 410.414,80.9574 410,80.5C 404.744,82.407 399.411,83.0737 394,82.5C 391.52,81.8776 391.02,80.5443 392.5,78.5C 386.638,77.5469 380.972,76.8803 375.5,76.5C 374.263,76.5565 373.263,77.0565 372.5,78C 374.246,78.4709 375.913,79.1376 377.5,80C 375.238,80.6419 373.071,81.4752 371,82.5C 366.344,81.7344 361.844,81.7344 357.5,82.5C 357.67,83.8221 357.337,84.9887 356.5,86C 353.286,87.8309 350.119,87.6643 347,85.5C 343.333,86.1667 339.667,86.8333 336,87.5C 313.549,87.1341 290.382,86.9674 266.5,87C 264.212,86.1779 261.878,85.5112 259.5,85C 260.328,84.0853 261.328,83.4186 262.5,83C 259.406,82.3482 256.406,82.6815 253.5,84C 254.167,84.3333 254.833,84.6667 255.5,85C 253.5,86 251.5,87 249.5,88C 251.001,89.2515 252.668,90.2515 254.5,91C 253.584,91.3742 252.75,91.8742 252,92.5C 250.611,90.7727 248.944,89.4394 247,88.5C 243.796,88.9686 240.629,89.3019 237.5,89.5 Z"/></g>
<g><path style="opacity:1" fill="#f4edd5" d="M 9.5,-0.5 C 146.833,-0.5 284.167,-0.5 421.5,-0.5C 421.631,0.376442 421.298,1.04311 420.5,1.5C 419.604,0.493667 418.938,0.493667 418.5,1.5C 419.167,2.5 419.833,3.5 420.5,4.5C 420.154,5.69559 419.654,5.69559 419,4.5C 418.333,6.16667 418.333,7.83333 419,9.5C 421.374,6.71242 422.707,7.04575 423,10.5C 423.667,9.16667 424.333,9.16667 425,10.5C 424.852,9.17503 425.018,8.00836 425.5,7C 424.692,6.69238 424.025,6.19238 423.5,5.5C 424.758,6.0164 425.758,5.34973 426.5,3.5C 427.242,5.10822 427.409,6.77489 427,8.5C 428,7.16667 429,7.16667 430,8.5C 430.667,6.83333 430.667,5.16667 430,3.5C 429.346,4.69559 428.846,4.69559 428.5,3.5C 429.275,-0.250991 430.609,-0.417657 432.5,3C 431.209,5.09024 431.876,6.42357 434.5,7C 433.66,8.66647 434.16,8.83314 436,7.5C 437.16,9.797 438.16,9.46367 439,6.5C 439.439,9.2993 440.772,10.2993 443,9.5C 444.31,11.1322 444.81,12.7988 444.5,14.5C 445.59,13.273 446.924,12.4396 448.5,12C 447.747,10.513 446.914,10.3463 446,11.5C 445.313,8.57442 443.48,7.24109 440.5,7.5C 440.343,6.12656 440.51,4.79323 441,3.5C 442.487,4.25286 442.654,5.0862 441.5,6C 443.521,6.14017 445.355,6.30683 447,6.5C 447.667,2.5 448.333,2.5 449,6.5C 449.667,7.83333 450.333,7.83333 451,6.5C 453.349,8.74426 452.849,9.91093 449.5,10C 449.626,11.9743 449.792,14.141 450,16.5C 450.419,15.3279 451.085,14.3279 452,13.5C 452.427,16.9416 454.26,18.4416 457.5,18C 455.789,16.8668 455.289,15.3668 456,13.5C 459.354,15.2763 459.854,17.6097 457.5,20.5C 459.869,23.7515 462.202,26.9182 464.5,30C 464,30.5 463.5,31 463,31.5C 462.333,28.8333 461.667,28.8333 461,31.5C 459.887,30.2889 458.72,30.2889 457.5,31.5C 457.968,29.8189 457.968,27.9856 457.5,26C 458.167,25.6667 458.833,25.3333 459.5,25C 457.384,23.5291 455.717,24.1957 454.5,27C 456,30.8001 456.333,34.6335 455.5,38.5C 457.582,38.472 459.416,39.1387 461,40.5C 461.333,39.5 461.667,38.5 462,37.5C 462.667,39.1667 462.667,40.8333 462,42.5C 460.703,41.2164 459.536,41.3831 458.5,43C 461.915,43.4057 464.582,45.0723 466.5,48C 465.167,48.6667 464.167,49.6667 463.5,51C 462.258,51.3114 461.258,50.8114 460.5,49.5C 459.808,50.0253 459.308,50.6919 459,51.5C 458.333,50.1667 457.333,49.1667 456,48.5C 455.89,46.1517 454.723,44.6517 452.5,44C 456.175,41.0031 455.842,37.5031 451.5,33.5C 449.295,34.3742 447.462,33.7076 446,31.5C 444.667,32.1667 443.667,33.1667 443,34.5C 442.667,34.1667 442.333,33.8333 442,33.5C 441.691,34.7659 441.191,35.9326 440.5,37C 442.256,37.2022 443.922,37.7022 445.5,38.5C 445.192,39.3081 444.692,39.9747 444,40.5C 442.969,38.579 441.469,38.579 439.5,40.5C 440.274,41.7112 441.107,41.7112 442,40.5C 442.913,43.352 442.08,45.5186 439.5,47C 440.357,47.6891 441.023,48.5224 441.5,49.5C 438.972,50.5174 438.972,51.6841 441.5,53C 440.726,55.4397 439.06,56.773 436.5,57C 438.246,57.4709 439.913,58.1376 441.5,59C 440.833,59.6667 440.167,60.3333 439.5,61C 442.906,64.3992 445.906,64.0659 448.5,60C 447.216,59.3162 446.049,59.4829 445,60.5C 444.018,59.2411 443.685,57.9078 444,56.5C 445.245,56.4615 446.578,56.7948 448,57.5C 449.261,57.2409 450.261,56.5742 451,55.5C 452.629,57.9845 452.129,60.1512 449.5,62C 450.025,62.6924 450.692,63.1924 451.5,63.5C 452.275,61.5247 453.609,60.6913 455.5,61C 455.579,62.9068 455.246,64.9068 454.5,67C 457.007,67.0929 459.174,67.9262 461,69.5C 461.692,68.9747 462.192,68.3081 462.5,67.5C 461.096,65.078 459.263,64.4113 457,65.5C 456.333,63.8333 456.333,62.1667 457,60.5C 457.424,62.6145 458.591,63.4479 460.5,63C 458.993,62.1627 458.493,60.9961 459,59.5C 459.333,59.8333 459.667,60.1667 460,60.5C 460.333,59.5 460.667,58.5 461,57.5C 462.872,61.2653 463.705,61.2653 463.5,57.5C 464.243,58.9079 465.077,60.2412 466,61.5C 465.667,58.8333 465.333,56.1667 465,53.5C 465.419,54.6721 466.085,55.6721 467,56.5C 470.583,52.4747 473.249,52.4747 475,56.5C 476.049,55.4829 477.216,55.3162 478.5,56C 477.833,56.3333 477.167,56.6667 476.5,57C 478.044,57.2896 479.377,57.9563 480.5,59C 479.551,59.6172 478.718,59.4506 478,58.5C 475.368,60.5147 475.202,62.5147 477.5,64.5C 482.406,62.1424 482.74,62.9758 478.5,67C 479.126,67.7504 479.626,68.5838 480,69.5C 481.016,70.6341 481.683,70.3008 482,68.5C 483.008,68.9817 484.175,69.1484 485.5,69C 482.723,71.1734 482.89,71.6734 486,70.5C 486.456,71.7441 485.956,72.5774 484.5,73C 486.316,74.3149 487.983,75.8149 489.5,77.5C 488.833,77.8333 488.167,78.1667 487.5,78.5C 490.449,81.1322 493.782,83.1322 497.5,84.5C 496.284,85.0959 494.951,85.2626 493.5,85C 492.87,86.892 491.87,88.5587 490.5,90C 493.544,90.3589 493.878,91.0255 491.5,92C 492.995,96.4578 491.661,97.1244 487.5,94C 490.044,92.9015 490.044,91.7348 487.5,90.5C 486.307,92.5267 484.64,94.0267 482.5,95C 482.833,98 484.5,99.6667 487.5,100C 485.671,100.273 484.171,101.107 483,102.5C 482,101.5 481,100.5 480,99.5C 478.333,99.5 476.667,99.5 475,99.5C 474.333,100.833 474.333,102.167 475,103.5C 476.824,104.749 476.657,105.915 474.5,107C 478.266,110.297 480.599,109.297 481.5,104C 482.167,103.333 482.833,103.333 483.5,104C 482.366,105.016 482.699,105.683 484.5,106C 483.643,106.689 482.977,107.522 482.5,108.5C 483.214,110.811 484.214,112.978 485.5,115C 484.09,115.368 483.09,116.201 482.5,117.5C 484.158,119.323 485.991,120.99 488,122.5C 488.684,121.216 488.517,120.049 487.5,119C 489.867,116.917 491.701,114.417 493,111.5C 493.5,112.667 494.333,113.5 495.5,114C 490.56,115.365 490.227,116.532 494.5,117.5C 493.066,118.23 491.9,119.23 491,120.5C 490.667,120.167 490.333,119.833 490,119.5C 489.333,121.167 489.333,122.833 490,124.5C 490.249,123.376 490.749,122.376 491.5,121.5C 491.833,121.667 492.167,121.833 492.5,122C 491.483,123.049 491.316,124.216 492,125.5C 492.333,125.167 492.667,124.833 493,124.5C 493.965,126.26 495.132,126.594 496.5,125.5C 495.758,124.713 494.925,124.047 494,123.5C 494.148,122.175 493.982,121.008 493.5,120C 496.124,119.424 496.791,118.09 495.5,116C 497.555,115.313 499.221,114.146 500.5,112.5C 499.47,112.446 498.303,112.112 497,111.5C 496.186,109.098 496.353,106.765 497.5,104.5C 497.654,105.909 497.821,107.576 498,109.5C 498.667,108.167 499.333,106.833 500,105.5C 500.333,106.167 500.667,106.833 501,107.5C 501.718,106.549 502.551,106.383 503.5,107C 504.833,107.667 504.833,108.333 503.5,109C 508.312,111.128 507.979,112.128 502.5,112C 503.67,113.755 505.337,114.755 507.5,115C 506.5,115.333 505.5,115.667 504.5,116C 506.527,118.027 508.527,120.027 510.5,122C 509.5,122.333 508.5,122.667 507.5,123C 509.108,123.469 510.775,124.135 512.5,125C 511.134,127.382 511.467,129.548 513.5,131.5C 510.785,133.551 510.952,135.217 514,136.5C 515.31,134.868 515.81,133.201 515.5,131.5C 516.859,133.692 518.692,135.359 521,136.5C 521.483,137.448 521.649,138.448 521.5,139.5C 518.93,140.716 516.43,141.383 514,141.5C 513.033,140.322 512.533,138.989 512.5,137.5C 510.922,136.36 509.256,135.86 507.5,136C 509.227,137.389 510.561,139.056 511.5,141C 511.056,142.762 510.556,142.595 510,140.5C 509.258,143.091 508.758,145.424 508.5,147.5C 510.04,147.694 511.706,148.527 513.5,150C 511.058,150.94 508.725,152.106 506.5,153.5C 507.167,153.833 507.833,154.167 508.5,154.5C 506.955,155.452 505.288,155.785 503.5,155.5C 503.109,148.231 499.442,143.397 492.5,141C 488.442,140.233 484.442,140.4 480.5,141.5C 476.05,125.42 465.383,118.587 448.5,121C 437.836,123.172 430.836,129.338 427.5,139.5C 410.229,129.437 396.729,133.437 387,151.5C 383.026,149.353 378.86,149.02 374.5,150.5C 372.463,153.233 371.463,156.067 371.5,159C 385.5,159.167 399.5,159.333 413.5,159.5C 427.85,159.499 441.85,158.833 455.5,157.5C 456.338,157.842 456.672,158.508 456.5,159.5C 457.172,160.267 458.005,160.934 459,161.5C 469.106,160.182 479.272,160.182 489.5,161.5C 489.154,162.696 488.654,162.696 488,161.5C 487.749,163.433 487.249,165.266 486.5,167C 487.725,167.563 488.725,167.23 489.5,166C 488.549,165.282 488.383,164.449 489,163.5C 490.6,164.866 492.433,165.866 494.5,166.5C 492.677,167.491 491.177,168.824 490,170.5C 489.667,169.833 489.333,169.167 489,168.5C 487.004,168.996 485.337,169.996 484,171.5C 483.692,170.692 483.192,170.025 482.5,169.5C 482.167,170.167 481.833,170.833 481.5,171.5C 480.262,167.689 479.596,167.689 479.5,171.5C 478.448,171.649 477.448,171.483 476.5,171C 478.686,170.396 478.852,169.23 477,167.5C 476,167.5 475,167.5 474,167.5C 472.488,163.041 469.988,162.041 466.5,164.5C 465.521,161.047 464.021,160.714 462,163.5C 460.984,162.366 460.317,162.699 460,164.5C 458.648,162.568 456.815,161.234 454.5,160.5C 453.023,162.82 451.19,164.153 449,164.5C 448.009,163.061 446.676,162.061 445,161.5C 444.779,164.943 443.779,165.276 442,162.5C 438.833,164.333 436.333,166.833 434.5,170C 436.907,172.363 437.074,174.863 435,177.5C 433.632,175.506 433.132,173.506 433.5,171.5C 431.885,172.154 430.218,172.654 428.5,173C 430.878,173.974 430.544,174.641 427.5,175C 428.833,175.667 430.167,176.333 431.5,177C 428.046,177.293 427.712,178.626 430.5,181C 428.945,182.583 427.778,184.416 427,186.5C 425.716,185.428 425.383,184.095 426,182.5C 424.933,183.191 423.766,183.691 422.5,184C 424.686,184.604 424.852,185.77 423,187.5C 422.259,186.359 421.425,186.359 420.5,187.5C 420.835,186.336 420.835,185.003 420.5,183.5C 418.461,185.874 416.128,187.874 413.5,189.5C 414.165,191.101 414.499,192.601 414.5,194C 413.833,194.333 413.167,194.667 412.5,195C 413.939,195.991 414.939,197.324 415.5,199C 413.219,200.482 413.219,202.149 415.5,204C 414.034,205.552 413.034,207.386 412.5,209.5C 415.982,211.487 418.982,213.987 421.5,217C 420.833,217.333 420.167,217.667 419.5,218C 420.784,218.684 421.951,218.517 423,217.5C 423.309,218.766 423.809,219.933 424.5,221C 421.584,223.071 421.918,224.405 425.5,225C 425.043,225.414 424.709,225.914 424.5,226.5C 426.745,227.208 428.745,228.208 430.5,229.5C 415.029,238.404 399.696,247.57 384.5,257C 369.954,265.235 354.621,271.402 338.5,275.5C 336.266,275.38 334.099,275.713 332,276.5C 329.105,275.591 326.272,274.591 323.5,273.5C 327.772,265.389 332.272,257.389 337,249.5C 355.467,237.188 363.634,220.188 361.5,198.5C 360.178,198.33 359.011,198.663 358,199.5C 357.667,198.167 357.333,196.833 357,195.5C 353.101,194.175 350.267,195.508 348.5,199.5C 347.986,198.375 347.653,197.209 347.5,196C 345.489,194.365 343.489,193.532 341.5,193.5C 342.592,192.169 343.926,191.336 345.5,191C 344.167,190 344.167,189 345.5,188C 344.256,187.544 343.423,188.044 343,189.5C 342.667,188.833 342.333,188.167 342,187.5C 339.861,187.543 337.694,187.877 335.5,188.5C 334.018,173.842 326.185,168.509 312,172.5C 311.055,172.905 310.388,173.572 310,174.5C 304.128,161.21 294.962,158.377 282.5,166C 278.857,169.793 275.857,173.96 273.5,178.5C 267.854,176.018 262.187,176.018 256.5,178.5C 255.761,178.631 255.094,178.464 254.5,178C 256.725,175.975 257.059,173.642 255.5,171C 259.245,171.035 259.912,170.035 257.5,168C 258.833,167.333 258.833,166.667 257.5,166C 259.878,165.026 259.544,164.359 256.5,164C 256.833,163.667 257.167,163.333 257.5,163C 256.258,162.689 255.258,163.189 254.5,164.5C 252.809,162.744 250.809,162.244 248.5,163C 248.833,163.333 249.167,163.667 249.5,164C 246.159,166.472 246.159,168.472 249.5,170C 249,170.167 248.5,170.333 248,170.5C 245.203,169.247 242.37,168.08 239.5,167C 241.723,166.348 242.89,164.848 243,162.5C 243.667,163.833 244.333,163.833 245,162.5C 245.617,161.551 245.451,160.718 244.5,160C 242.567,159.217 241.067,159.717 240,161.5C 239,160.5 238,159.5 237,158.5C 235.416,159.861 233.582,160.528 231.5,160.5C 231.649,159.448 231.483,158.448 231,157.5C 230.349,159.235 230.515,160.902 231.5,162.5C 231.192,163.308 230.692,163.975 230,164.5C 228.916,163.335 228.083,162.002 227.5,160.5C 230.243,158.302 230.077,156.302 227,154.5C 226.195,156.901 225.362,156.734 224.5,154C 224.609,150.83 224.609,147.663 224.5,144.5C 223.372,143.738 222.205,143.071 221,142.5C 219.341,143.831 217.674,145.165 216,146.5C 214.012,146.475 212.012,146.475 210,146.5C 209.25,145.874 208.416,145.374 207.5,145C 208.766,144.691 209.933,144.191 211,143.5C 211.333,143.833 211.667,144.167 212,144.5C 212.5,143.333 213.333,142.5 214.5,142C 212.598,141.801 211.098,140.967 210,139.5C 209.458,144.721 208.624,144.721 207.5,139.5C 206.304,139.846 206.304,140.346 207.5,141C 203.5,141.667 203.5,142.333 207.5,143C 205.833,143.333 204.167,143.667 202.5,144C 204.595,144.556 204.762,145.056 203,145.5C 201.355,143.319 199.855,140.986 198.5,138.5C 199.811,137.742 200.311,136.742 200,135.5C 199.586,135.957 199.086,136.291 198.5,136.5C 194.747,135.36 194.081,133.526 196.5,131C 194.229,130.546 191.896,129.879 189.5,129C 190.509,127.343 191.509,125.677 192.5,124C 190.803,121.37 189.969,118.536 190,115.5C 191.619,114.917 193.452,114.917 195.5,115.5C 196.711,114.726 196.711,113.893 195.5,113C 196.536,111.383 197.703,111.216 199,112.5C 198.383,110.905 198.716,109.572 200,108.5C 201.667,109.833 203.333,111.167 205,112.5C 206.437,110.779 205.937,109.279 203.5,108C 205.108,107.531 206.775,106.865 208.5,106C 207.376,105.751 206.376,105.251 205.5,104.5C 205.667,104.167 205.833,103.833 206,103.5C 208.316,105.459 210.316,105.459 212,103.5C 212.359,106.544 213.026,106.878 214,104.5C 215.855,108.17 218.189,108.836 221,106.5C 221.513,109.027 222.68,111.193 224.5,113C 223.012,114.988 221.346,116.821 219.5,118.5C 218.325,117.145 217.325,117.312 216.5,119C 218.571,120.436 220.404,119.936 222,117.5C 223.437,119.221 222.937,120.721 220.5,122C 221.579,122.956 222.745,123.789 224,124.5C 225.691,121.869 226.858,122.203 227.5,125.5C 227.906,124.443 227.906,123.109 227.5,121.5C 229.429,121.769 231.095,121.269 232.5,120C 226.765,120.894 226.432,120.227 231.5,118C 231.167,117.667 230.833,117.333 230.5,117C 232.657,115.915 232.824,114.749 231,113.5C 230.026,115.878 229.359,115.544 229,112.5C 227.334,113.34 227.167,112.84 228.5,111C 224.534,109.279 224.534,107.612 228.5,106C 226.939,105.682 225.772,104.849 225,103.5C 224.784,105.384 224.117,107.051 223,108.5C 223.167,106.667 223.333,104.833 223.5,103C 223,102.5 222.5,102 222,101.5C 221.316,103.359 220.316,105.026 219,106.5C 218.5,106 218,105.5 217.5,105C 219.694,103.447 220.86,101.281 221,98.5C 222.011,97.6634 223.178,97.33 224.5,97.5C 224.343,98.8734 224.51,100.207 225,101.5C 225.582,98.3323 226.582,97.999 228,100.5C 228.317,98.6992 228.984,98.3659 230,99.5C 232.015,97.5217 231.848,95.6884 229.5,94C 230.025,93.3076 230.692,92.8076 231.5,92.5C 232.842,93.9023 233.676,93.5689 234,91.5C 235.987,95.3673 236.487,95.3673 235.5,91.5C 236.243,90.8182 236.909,90.1515 237.5,89.5C 240.629,89.3019 243.796,88.9686 247,88.5C 248.944,89.4394 250.611,90.7727 252,92.5C 252.75,91.8742 253.584,91.3742 254.5,91C 252.668,90.2515 251.001,89.2515 249.5,88C 251.5,87 253.5,86 255.5,85C 254.833,84.6667 254.167,84.3333 253.5,84C 256.406,82.6815 259.406,82.3482 262.5,83C 261.328,83.4186 260.328,84.0853 259.5,85C 261.878,85.5112 264.212,86.1779 266.5,87C 290.382,86.9674 313.549,87.1341 336,87.5C 339.667,86.8333 343.333,86.1667 347,85.5C 350.119,87.6643 353.286,87.8309 356.5,86C 357.337,84.9887 357.67,83.8221 357.5,82.5C 361.844,81.7344 366.344,81.7344 371,82.5C 373.071,81.4752 375.238,80.6419 377.5,80C 375.913,79.1376 374.246,78.4709 372.5,78C 373.263,77.0565 374.263,76.5565 375.5,76.5C 380.972,76.8803 386.638,77.5469 392.5,78.5C 391.02,80.5443 391.52,81.8776 394,82.5C 399.411,83.0737 404.744,82.407 410,80.5C 410.414,80.9574 410.914,81.2907 411.5,81.5C 412.096,80.2839 412.263,78.9506 412,77.5C 413.113,78.7111 414.28,78.7111 415.5,77.5C 416.216,79.482 417.383,81.1487 419,82.5C 420.77,81.7236 422.603,81.8903 424.5,83C 425.624,85.4817 427.29,85.9817 429.5,84.5C 430.277,81.4664 431.611,78.7998 433.5,76.5C 435.115,77.154 436.782,77.654 438.5,78C 438.165,79.7772 438.999,81.2772 441,82.5C 443.244,82.1333 443.744,81.1333 442.5,79.5C 449.101,77.394 448.768,75.894 441.5,75C 443.5,74.3333 445.5,73.6667 447.5,73C 446.643,72.3109 445.977,71.4776 445.5,70.5C 447.078,69.7022 448.744,69.2022 450.5,69C 447.264,67.8482 443.931,67.0149 440.5,66.5C 437.964,67.7022 436.63,69.7022 436.5,72.5C 435.5,72.5 434.5,72.5 433.5,72.5C 433.244,70.2075 433.577,68.0408 434.5,66C 432.321,65.5581 431.655,64.5581 432.5,63C 430.744,62.7978 429.078,62.2978 427.5,61.5C 431.758,59.0957 431.425,57.4291 426.5,56.5C 428.287,55.684 429.954,54.684 431.5,53.5C 430.985,51.7749 430.318,50.1083 429.5,48.5C 429.167,49.8333 428.833,51.1667 428.5,52.5C 427.749,51.624 427.249,50.624 427,49.5C 426.667,49.8333 426.333,50.1667 426,50.5C 422.228,44.5129 417.895,44.1795 413,49.5C 410.708,47.2271 407.875,46.0604 404.5,46C 405.167,45.3333 405.833,44.6667 406.5,44C 404.436,43.3468 402.769,42.1801 401.5,40.5C 399.866,42.7489 397.866,43.0822 395.5,41.5C 392.011,42.2692 388.511,43.2692 385,44.5C 384.085,43.6721 383.419,42.6721 383,41.5C 382.717,44.7423 381.883,45.0756 380.5,42.5C 377.167,43.1667 373.833,43.8333 370.5,44.5C 363.291,44.3353 356.291,44.002 349.5,43.5C 347.235,43.9397 345.068,44.6064 343,45.5C 342.25,44.8742 341.416,44.3742 340.5,44C 336.016,43.7365 331.682,43.5698 327.5,43.5C 325.541,43.8748 323.707,44.5415 322,45.5C 320.057,43.2849 318.391,43.2849 317,45.5C 316.692,44.6919 316.192,44.0253 315.5,43.5C 314.738,44.6283 314.071,45.7949 313.5,47C 311.302,47.3729 309.135,47.8729 307,48.5C 305.739,48.2409 304.739,47.5742 304,46.5C 296.378,47.1488 288.711,47.1488 281,46.5C 276.532,47.1935 272.032,47.8602 267.5,48.5C 265.817,47.4079 263.984,46.7413 262,46.5C 255.467,47.8587 248.967,47.692 242.5,46C 243.167,45.3333 243.833,44.6667 244.5,44C 243.826,42.2494 243.493,40.5827 243.5,39C 244.293,37.9148 244.96,36.7481 245.5,35.5C 244.019,34.5197 242.685,33.353 241.5,32C 242.833,31.3333 242.833,30.6667 241.5,30C 238.258,27.6754 234.924,27.3421 231.5,29C 231.957,29.414 232.291,29.914 232.5,30.5C 230.037,32.768 227.37,33.768 224.5,33.5C 222.056,35.8955 219.39,38.0622 216.5,40C 216.833,40.3333 217.167,40.6667 217.5,41C 216.391,41.6377 215.225,42.1377 214,42.5C 208.72,38.5178 202.72,36.5178 196,36.5C 192.808,37.9872 190.974,36.9872 190.5,33.5C 186.926,34.8686 184.093,34.2019 182,31.5C 181.612,32.428 180.945,33.0946 180,33.5C 178.238,33.0556 178.405,32.5556 180.5,32C 178.899,31.7266 177.399,31.2266 176,30.5C 174.601,31.2266 173.101,31.7266 171.5,32C 172.34,33.6665 171.84,33.8331 170,32.5C 169.244,35.7924 167.411,36.7924 164.5,35.5C 163.014,33.6984 162.014,31.6984 161.5,29.5C 157.697,26.9103 153.031,24.5769 147.5,22.5C 144.622,24.0992 141.956,25.9325 139.5,28C 140.833,28.3333 142.167,28.6667 143.5,29C 138.406,30.4866 137.073,33.32 139.5,37.5C 143.421,38.2523 146.755,40.0856 149.5,43C 146.284,43.0026 143.617,44.1692 141.5,46.5C 143.078,47.2892 145.078,48.2892 147.5,49.5C 146.624,50.2508 145.624,50.7508 144.5,51C 146.218,51.346 147.885,51.846 149.5,52.5C 150.7,51.4688 152.034,50.6355 153.5,50C 152.707,48.9148 152.04,47.7481 151.5,46.5C 153.984,43.2134 157.317,41.2134 161.5,40.5C 162.386,41.325 162.719,42.325 162.5,43.5C 160.712,43.2148 159.045,43.5481 157.5,44.5C 158.328,45.4147 159.328,46.0814 160.5,46.5C 162.529,45.3707 162.863,45.8707 161.5,48C 162.624,48.2492 163.624,48.7492 164.5,49.5C 163.384,49.402 162.384,49.902 161.5,51C 161.645,51.772 161.978,52.4387 162.5,53C 165.771,53.121 168.605,51.9543 171,49.5C 179.381,50.2285 185.214,54.3952 188.5,62C 187.833,62.6667 187.167,63.3333 186.5,64C 187.506,65.338 188.506,66.6713 189.5,68C 188.5,68.3333 187.5,68.6667 186.5,69C 187.416,69.2784 188.082,69.7784 188.5,70.5C 187.778,70.9175 187.278,71.5842 187,72.5C 185.934,70.9005 184.434,69.9005 182.5,69.5C 180.581,69.6137 178.581,70.2804 176.5,71.5C 176.617,69.5165 175.95,67.8498 174.5,66.5C 173.41,67.3914 173.41,68.3914 174.5,69.5C 173.855,70.646 173.022,71.646 172,72.5C 170.467,72.0563 168.967,71.723 167.5,71.5C 166.114,73.6436 164.614,74.977 163,75.5C 162.691,74.2341 162.191,73.0674 161.5,72C 162.815,70.6054 162.481,69.6054 160.5,69C 162.429,65.7441 162.929,62.2441 162,58.5C 161.667,59.1667 161.333,59.8333 161,60.5C 159.68,60.201 158.18,60.0343 156.5,60C 157.016,57.9672 156.35,57.9672 154.5,60C 156.525,61.194 156.859,62.694 155.5,64.5C 156.631,65.6039 157.465,65.2705 158,63.5C 159.578,64.7113 159.745,66.0446 158.5,67.5C 156.776,66.3387 155.11,66.5053 153.5,68C 155.947,69.2289 156.113,70.7289 154,72.5C 153.529,70.7536 152.862,69.087 152,67.5C 149.667,67.5 147.333,67.5 145,67.5C 144.667,66.1667 144.333,64.8333 144,63.5C 142.482,63.9426 141.315,63.2759 140.5,61.5C 139.808,62.0253 139.308,62.6919 139,63.5C 138.439,62.9781 137.772,62.6448 137,62.5C 135.278,62.6107 135.112,63.1107 136.5,64C 135.552,64.4828 134.552,64.6495 133.5,64.5C 133.649,65.552 133.483,66.552 133,67.5C 132.667,67.1667 132.333,66.8333 132,66.5C 132.497,64.8016 132.33,63.1349 131.5,61.5C 132.297,59.8685 133.297,58.3685 134.5,57C 133.427,55.5838 133.427,54.2504 134.5,53C 133.667,52.1667 132.833,51.3333 132,50.5C 129.588,52.3272 128.088,54.3272 127.5,56.5C 127.243,54.2875 126.576,52.2875 125.5,50.5C 124.749,51.376 124.249,52.376 124,53.5C 123.581,52.3279 122.915,51.3279 122,50.5C 121.641,53.5443 120.974,53.8776 120,51.5C 118.701,51.9662 117.201,51.9662 115.5,51.5C 115.509,49.6916 115.009,48.0249 114,46.5C 113.667,46.8333 113.333,47.1667 113,47.5C 112.751,46.376 112.251,45.376 111.5,44.5C 110.304,44.8457 110.304,45.3457 111.5,46C 110.833,46.6667 110.167,46.6667 109.5,46C 108.91,44.4905 108.244,42.9905 107.5,41.5C 105.833,42.8333 104.167,42.8333 102.5,41.5C 100.736,44.1772 99.5696,43.8438 99,40.5C 98,41.8333 97,41.8333 96,40.5C 97.0957,42.6824 97.7623,45.0158 98,47.5C 99.036,44.7056 100.536,44.2056 102.5,46C 100.416,47.7708 98.0822,49.1042 95.5,50C 93.8876,50.7203 92.3876,50.5536 91,49.5C 90.6667,50.5 90.3333,51.5 90,52.5C 88.8631,51.636 87.5298,50.636 86,49.5C 85.3828,50.4491 85.5494,51.2825 86.5,52C 85.2513,53.8241 84.0847,53.6574 83,51.5C 81.8674,55.3086 79.7008,57.4752 76.5,58C 78.7671,60.8375 78.4338,62.6708 75.5,63.5C 76.5628,65.366 75.8961,65.866 73.5,65C 73.9369,62.5506 73.9369,60.2173 73.5,58C 71.9716,56.6387 70.3049,55.472 68.5,54.5C 67.7769,56.1639 68.1103,57.8306 69.5,59.5C 67.6587,60.2304 65.8254,60.8971 64,61.5C 62.9025,60.0325 61.4025,59.1992 59.5,59C 61.8912,58.3086 61.8912,57.3086 59.5,56C 60.8412,54.7052 62.1745,54.2052 63.5,54.5C 62.1936,53.0878 61.3603,51.4211 61,49.5C 60.6667,50.1667 60.3333,50.8333 60,51.5C 59.0805,51.0698 58.2472,50.7365 57.5,50.5C 58.2634,49.2807 59.2634,48.2807 60.5,47.5C 62.962,43.4135 62.462,40.0801 59,37.5C 57.3498,37.9319 55.8498,39.2652 54.5,41.5C 53.914,41.2907 53.414,40.9574 53,40.5C 52.7811,41.938 52.2811,43.2713 51.5,44.5C 51.6732,42.4536 50.8399,40.4536 49,38.5C 48.3333,39.8333 47.6667,39.8333 47,38.5C 46.6667,39.1667 46.3333,39.8333 46,40.5C 45.6905,39.2341 45.1905,38.0674 44.5,37C 45.6721,36.5814 46.6721,35.9147 47.5,35C 46.175,35.1484 45.0084,34.9817 44,34.5C 43.6667,35.1667 43.3333,35.8333 43,36.5C 42.276,34.0411 40.9427,33.0411 39,33.5C 38.342,31.892 38.842,30.7253 40.5,30C 39.2713,28.4708 37.7713,27.3041 36,26.5C 34.0858,27.676 34.2524,28.676 36.5,29.5C 34.2362,30.0378 31.9028,29.7044 29.5,28.5C 28.3961,27.3687 28.7295,26.5354 30.5,26C 28.3426,24.9153 28.1759,23.7487 30,22.5C 31.0437,23.6226 31.7104,24.9559 32,26.5C 32.5,25.3333 33.3333,24.5 34.5,24C 33.8333,22.6667 33.1667,21.3333 32.5,20C 33.9389,19.0094 34.9389,17.676 35.5,16C 34.2964,12.0673 32.6297,11.734 30.5,15C 25.3708,15.5264 25.3708,14.8598 30.5,13C 30.0426,12.586 29.7093,12.086 29.5,11.5C 30.1667,11.1667 30.8333,10.8333 31.5,10.5C 30.3112,9.57131 28.9778,9.23798 27.5,9.5C 27.5,10.8333 27.5,12.1667 27.5,13.5C 25.6096,13.2965 24.1096,13.9632 23,15.5C 22.9861,17.598 23.1528,19.4313 23.5,21C 22.4214,21.956 21.2547,22.7894 20,23.5C 20.4531,21.5458 20.6198,19.7125 20.5,18C 19.1279,17.5983 17.7946,17.0983 16.5,16.5C 15.4593,18.9913 14.6259,18.9913 14,16.5C 12.3721,17.8187 12.5387,19.1521 14.5,20.5C 15.451,19.6744 16.451,19.5078 17.5,20C 15.8697,21.2131 14.0364,22.0464 12,22.5C 7.94541,21.4593 7.77874,20.7926 11.5,20.5C 11.67,19.1779 11.3366,18.0113 10.5,17C 7.74942,16.484 5.41609,15.3173 3.5,13.5C 4.16667,12.8333 4.83333,12.1667 5.5,11.5C 3.78657,6.83698 5.11991,2.83698 9.5,-0.5 Z"/></g>
<g><path style="opacity:1" fill="#ede3ba" d="M 503.5,155.5 C 503.5,156.833 503.5,158.167 503.5,159.5C 487.833,159.5 472.167,159.5 456.5,159.5C 456.672,158.508 456.338,157.842 455.5,157.5C 450.906,149.454 444.072,146.454 435,148.5C 432.659,145.33 430.159,142.33 427.5,139.5C 430.836,129.338 437.836,123.172 448.5,121C 465.383,118.587 476.05,125.42 480.5,141.5C 484.442,140.4 488.442,140.233 492.5,141C 499.442,143.397 503.109,148.231 503.5,155.5 Z"/></g>
<g><path style="opacity:1" fill="#f8f2e0" d="M 427.5,139.5 C 430.159,142.33 432.659,145.33 435,148.5C 444.072,146.454 450.906,149.454 455.5,157.5C 441.85,158.833 427.85,159.499 413.5,159.5C 399.5,159.333 385.5,159.167 371.5,159C 371.463,156.067 372.463,153.233 374.5,150.5C 378.86,149.02 383.026,149.353 387,151.5C 396.729,133.437 410.229,129.437 427.5,139.5 Z"/></g>
<g><path style="opacity:1" fill="#2c5340" d="M 109.5,203.5 C 109.833,202.833 110.167,202.167 110.5,201.5C 115.555,202.994 120.555,202.827 125.5,201C 140.166,194.667 151.333,184.5 159,170.5C 160.633,165.521 160.8,160.521 159.5,155.5C 163.918,155.016 167.084,157.016 169,161.5C 170.104,167.226 169.104,172.56 166,177.5C 158.24,190.645 147.406,200.478 133.5,207C 128.307,208.968 122.974,209.634 117.5,209C 114.206,207.871 111.54,206.038 109.5,203.5 Z"/></g>
<g><path style="opacity:1" fill="#376957" d="M 185.5,173.5 C 182.152,176.851 179.152,180.518 176.5,184.5C 162.29,200.386 146.29,214.052 128.5,225.5C 123.286,227.959 117.786,229.293 112,229.5C 108.16,229.961 104.827,228.961 102,226.5C 101.084,217.678 103.584,210.011 109.5,203.5C 111.54,206.038 114.206,207.871 117.5,209C 122.974,209.634 128.307,208.968 133.5,207C 147.406,200.478 158.24,190.645 166,177.5C 169.104,172.56 170.104,167.226 169,161.5C 167.084,157.016 163.918,155.016 159.5,155.5C 160.8,160.521 160.633,165.521 159,170.5C 151.333,184.5 140.166,194.667 125.5,201C 120.555,202.827 115.555,202.994 110.5,201.5C 105.088,192.618 104.255,183.285 108,173.5C 117.832,154.248 133.165,147.248 154,152.5C 162.451,140.019 173.951,135.519 188.5,139C 192.424,141.343 194.424,144.843 194.5,149.5C 193.166,158.161 190.166,166.161 185.5,173.5 Z"/></g>
<g><path style="opacity:1" fill="#f8f2e0" d="M 335.5,188.5 C 306.826,188.833 278.159,188.5 249.5,187.5C 250.774,183.572 253.107,180.572 256.5,178.5C 262.187,176.018 267.854,176.018 273.5,178.5C 275.857,173.96 278.857,169.793 282.5,166C 294.962,158.377 304.128,161.21 310,174.5C 310.388,173.572 311.055,172.905 312,172.5C 326.185,168.509 334.018,173.842 335.5,188.5 Z"/></g>
<g><path style="opacity:1" fill="#e2bf80" d="M 323.5,273.5 C 316.513,286.139 309.013,298.472 301,310.5C 297.386,315.237 293.219,319.403 288.5,323C 287.391,323.638 286.225,324.138 285,324.5C 276.168,323.528 267.335,322.528 258.5,321.5C 263.382,309.675 266.048,297.342 266.5,284.5C 270.278,286.484 274.278,287.317 278.5,287C 285.389,278.709 292.389,270.542 299.5,262.5C 306.515,254.979 313.015,246.979 319,238.5C 320.436,231.553 321.77,224.553 323,217.5C 324.473,213.221 326.473,209.221 329,205.5C 330.243,203.167 331.909,202.5 334,203.5C 334.34,208.004 334.507,212.337 334.5,216.5C 339.16,210.839 343.827,205.172 348.5,199.5C 350.267,195.508 353.101,194.175 357,195.5C 357.333,196.833 357.667,198.167 358,199.5C 359.011,198.663 360.178,198.33 361.5,198.5C 363.634,220.188 355.467,237.188 337,249.5C 332.272,257.389 327.772,265.389 323.5,273.5 Z"/></g>
<g><path style="opacity:1" fill="#274232" d="M 176.5,184.5 C 176.784,190.659 175.951,196.659 174,202.5C 170.549,197.87 166.883,197.537 163,201.5C 162.262,205.261 162.595,208.928 164,212.5C 165.829,214.954 167.662,217.287 169.5,219.5C 165.059,232.227 156.059,238.227 142.5,237.5C 136.305,235.307 131.639,231.307 128.5,225.5C 146.29,214.052 162.29,200.386 176.5,184.5 Z"/></g>
<g><path style="opacity:1" fill="#bab87a" d="M 589.5,270.5 C 582.309,267.409 574.976,264.576 567.5,262C 544.922,256.75 522.589,257.75 500.5,265C 470.543,275.312 441.543,287.812 413.5,302.5C 391.321,295.61 368.987,288.777 346.5,282C 343.911,280.803 341.244,279.803 338.5,279C 337.316,277.855 337.316,276.688 338.5,275.5C 354.621,271.402 369.954,265.235 384.5,257C 399.696,247.57 415.029,238.404 430.5,229.5C 438.347,225.715 446.347,222.215 454.5,219C 475.989,210.853 496.989,211.853 517.5,222C 543.12,235.961 567.12,252.127 589.5,270.5 Z"/></g>
<g><path style="opacity:1" fill="#e5ba7b" d="M 185.5,173.5 C 186.219,178.118 186.719,182.785 187,187.5C 191.001,191.487 194.168,195.987 196.5,201C 194.89,207.041 194.057,213.208 194,219.5C 192.244,229.432 186.411,233.765 176.5,232.5C 177.222,238.218 178.222,243.885 179.5,249.5C 167.253,247.717 154.919,247.05 142.5,247.5C 142.5,244.167 142.5,240.833 142.5,237.5C 156.059,238.227 165.059,232.227 169.5,219.5C 167.662,217.287 165.829,214.954 164,212.5C 162.595,208.928 162.262,205.261 163,201.5C 166.883,197.537 170.549,197.87 174,202.5C 175.951,196.659 176.784,190.659 176.5,184.5C 179.152,180.518 182.152,176.851 185.5,173.5 Z"/></g>
<g><path style="opacity:1" fill="#c4c088" d="M 299.5,262.5 C 292.389,270.542 285.389,278.709 278.5,287C 274.278,287.317 270.278,286.484 266.5,284.5C 266.863,282.089 265.863,280.589 263.5,280C 244.487,270.991 225.154,262.824 205.5,255.5C 200.325,253.553 194.992,252.22 189.5,251.5C 186.833,250.833 184.167,250.167 181.5,249.5C 192.203,244.152 203.203,239.319 214.5,235C 229.435,231.753 243.768,233.419 257.5,240C 271.713,247.271 285.713,254.771 299.5,262.5 Z"/></g>
<g><path style="opacity:1" fill="#aaa568" d="M 142.5,247.5 C 154.919,247.05 167.253,247.717 179.5,249.5C 180.167,249.5 180.833,249.5 181.5,249.5C 184.167,250.167 186.833,250.833 189.5,251.5C 180.83,252.502 173.497,256.168 167.5,262.5C 166.18,263.942 164.514,264.608 162.5,264.5C 161.391,263.71 160.058,263.21 158.5,263C 147.854,262.02 137.187,261.52 126.5,261.5C 127.945,258.882 129.611,256.382 131.5,254C 129.19,253.503 126.857,253.337 124.5,253.5C 127.305,252.681 130.305,252.181 133.5,252C 135.995,249.462 138.995,247.962 142.5,247.5 Z"/></g>
<g><path style="opacity:1" fill="#355c48" d="M 189.5,251.5 C 194.992,252.22 200.325,253.553 205.5,255.5C 199.291,256.177 193.291,258.01 187.5,261C 182.029,264.717 177.029,268.883 172.5,273.5C 170.941,270.593 168.941,267.926 166.5,265.5C 166.977,264.522 167.643,263.689 168.5,263C 168.272,262.601 167.938,262.435 167.5,262.5C 173.497,256.168 180.83,252.502 189.5,251.5 Z"/></g>
<g><path style="opacity:1" fill="#335a47" d="M 124.5,253.5 C 126.857,253.337 129.19,253.503 131.5,254C 129.611,256.382 127.945,258.882 126.5,261.5C 121.225,261.638 116.059,262.305 111,263.5C 110.601,263.272 110.435,262.938 110.5,262.5C 112.5,260.167 114.5,257.833 116.5,255.5C 119.006,254.25 121.673,253.584 124.5,253.5 Z"/></g>
<g><path style="opacity:1" fill="#aaa566" d="M 205.5,255.5 C 225.154,262.824 244.487,270.991 263.5,280C 265.863,280.589 266.863,282.089 266.5,284.5C 266.048,297.342 263.382,309.675 258.5,321.5C 257.326,322.514 256.66,323.847 256.5,325.5C 252.896,326.521 249.229,326.521 245.5,325.5C 238.071,322.721 230.404,320.388 222.5,318.5C 222.179,324.026 222.512,329.36 223.5,334.5C 223.986,342.158 224.32,349.825 224.5,357.5C 218.167,357.5 211.833,357.5 205.5,357.5C 214.683,345.787 220.016,332.454 221.5,317.5C 219.105,316.637 216.771,316.637 214.5,317.5C 209.895,332.724 202.229,346.057 191.5,357.5C 187.5,357.5 183.5,357.5 179.5,357.5C 179.196,332.762 177.696,308.096 175,283.5C 174.467,280.071 173.633,276.738 172.5,273.5C 177.029,268.883 182.029,264.717 187.5,261C 193.291,258.01 199.291,256.177 205.5,255.5 Z"/></g>
<g><path style="opacity:1" fill="#999d61" d="M 589.5,270.5 C 591.657,272.412 593.991,274.079 596.5,275.5C 596.5,291.833 596.5,308.167 596.5,324.5C 518.166,324.667 439.833,324.5 361.5,324C 379.202,317.647 396.535,310.48 413.5,302.5C 441.543,287.812 470.543,275.312 500.5,265C 522.589,257.75 544.922,256.75 567.5,262C 574.976,264.576 582.309,267.409 589.5,270.5 Z"/></g>
<g><path style="opacity:1" fill="#2d513f" d="M 167.5,262.5 C 167.938,262.435 168.272,262.601 168.5,263C 167.643,263.689 166.977,264.522 166.5,265.5C 168.941,267.926 170.941,270.593 172.5,273.5C 173.633,276.738 174.467,280.071 175,283.5C 177.696,308.096 179.196,332.762 179.5,357.5C 146.167,357.5 112.833,357.5 79.5,357.5C 102.661,356.502 125.994,356.169 149.5,356.5C 149.221,342.463 148.387,328.463 147,314.5C 140.606,321.133 132.773,324.133 123.5,323.5C 119.107,323.543 118.774,323.043 122.5,322C 120.657,321.841 119.991,321.341 120.5,320.5C 126.273,320.366 131.94,319.532 137.5,318C 141.388,315.778 144.221,312.612 146,308.5C 146.617,297.654 148.284,286.987 151,276.5C 153.012,270.656 156.846,266.656 162.5,264.5C 164.514,264.608 166.18,263.942 167.5,262.5 Z"/></g>
<g><path style="opacity:1" fill="#3c6a57" d="M 126.5,261.5 C 137.187,261.52 147.854,262.02 158.5,263C 160.058,263.21 161.391,263.71 162.5,264.5C 156.846,266.656 153.012,270.656 151,276.5C 148.284,286.987 146.617,297.654 146,308.5C 144.221,312.612 141.388,315.778 137.5,318C 131.94,319.532 126.273,320.366 120.5,320.5C 120.789,317.351 120.289,314.351 119,311.5C 115,310.167 111,310.167 107,311.5C 106.498,314.513 105.998,317.513 105.5,320.5C 98.2782,320.985 91.4449,319.651 85,316.5C 84.3162,317.784 84.4829,318.951 85.5,320C 91.5347,322.743 97.868,324.243 104.5,324.5C 104.335,328.182 104.501,331.848 105,335.5C 109.298,339.379 113.631,339.379 118,335.5C 118.42,331.809 118.92,328.142 119.5,324.5C 121.099,324.768 122.432,324.434 123.5,323.5C 132.773,324.133 140.606,321.133 147,314.5C 148.387,328.463 149.221,342.463 149.5,356.5C 125.994,356.169 102.661,356.502 79.5,357.5C 78.8442,356.378 78.5108,355.045 78.5,353.5C 79.9078,344.157 81.2412,334.824 82.5,325.5C 82.5072,322.962 82.8405,320.462 83.5,318C 80.5175,304.855 81.6842,292.021 87,279.5C 91.8745,269.799 99.7078,264.132 110.5,262.5C 110.435,262.938 110.601,263.272 111,263.5C 116.059,262.305 121.225,261.638 126.5,261.5 Z"/></g>
<g><path style="opacity:1" fill="#c2be86" d="M 323.5,273.5 C 326.272,274.591 329.105,275.591 332,276.5C 334.099,275.713 336.266,275.38 338.5,275.5C 337.316,276.688 337.316,277.855 338.5,279C 341.244,279.803 343.911,280.803 346.5,282C 368.987,288.777 391.321,295.61 413.5,302.5C 396.535,310.48 379.202,317.647 361.5,324C 439.833,324.5 518.166,324.667 596.5,324.5C 596.5,324.833 596.5,325.167 596.5,325.5C 483.167,325.5 369.833,325.5 256.5,325.5C 256.66,323.847 257.326,322.514 258.5,321.5C 267.335,322.528 276.168,323.528 285,324.5C 286.225,324.138 287.391,323.638 288.5,323C 293.219,319.403 297.386,315.237 301,310.5C 309.013,298.472 316.513,286.139 323.5,273.5 Z"/></g>
<g><path style="opacity:1" fill="#e0d7a8" d="M 116.5,255.5 C 114.5,257.833 112.5,260.167 110.5,262.5C 99.7078,264.132 91.8745,269.799 87,279.5C 81.6842,292.021 80.5175,304.855 83.5,318C 82.8405,320.462 82.5072,322.962 82.5,325.5C 54.8333,325.5 27.1667,325.5 -0.5,325.5C -0.5,312.167 -0.5,298.833 -0.5,285.5C 0.873441,285.657 2.20677,285.49 3.5,285C 23.6131,275.782 42.6131,264.782 60.5,252C 79.9555,241.133 98.6222,242.299 116.5,255.5 Z"/></g>
<g><path style="opacity:1" fill="#335947" d="M 120.5,320.5 C 119.991,321.341 120.657,321.841 122.5,322C 118.774,323.043 119.107,323.543 123.5,323.5C 122.432,324.434 121.099,324.768 119.5,324.5C 118.92,328.142 118.42,331.809 118,335.5C 113.631,339.379 109.298,339.379 105,335.5C 104.501,331.848 104.335,328.182 104.5,324.5C 97.868,324.243 91.5347,322.743 85.5,320C 84.4829,318.951 84.3162,317.784 85,316.5C 91.4449,319.651 98.2782,320.985 105.5,320.5C 105.998,317.513 106.498,314.513 107,311.5C 111,310.167 115,310.167 119,311.5C 120.289,314.351 120.789,317.351 120.5,320.5 Z"/></g>
<g><path style="opacity:1" fill="#335a47" d="M 205.5,357.5 C 200.833,357.5 196.167,357.5 191.5,357.5C 202.229,346.057 209.895,332.724 214.5,317.5C 216.771,316.637 219.105,316.637 221.5,317.5C 220.016,332.454 214.683,345.787 205.5,357.5 Z"/></g>
<g><path style="opacity:1" fill="#ccc794" d="M 245.5,325.5 C 238.167,325.5 230.833,325.5 223.5,325.5C 223.5,328.5 223.5,331.5 223.5,334.5C 222.512,329.36 222.179,324.026 222.5,318.5C 230.404,320.388 238.071,322.721 245.5,325.5 Z"/></g>
<g><path style="opacity:1" fill="#f5eed7" d="M -0.5,325.5 C 27.1667,325.5 54.8333,325.5 82.5,325.5C 81.2412,334.824 79.9078,344.157 78.5,353.5C 78.5108,355.045 78.8442,356.378 79.5,357.5C 112.833,357.5 146.167,357.5 179.5,357.5C 183.5,357.5 187.5,357.5 191.5,357.5C 196.167,357.5 200.833,357.5 205.5,357.5C 211.833,357.5 218.167,357.5 224.5,357.5C 224.32,349.825 223.986,342.158 223.5,334.5C 223.5,331.5 223.5,328.5 223.5,325.5C 230.833,325.5 238.167,325.5 245.5,325.5C 249.229,326.521 252.896,326.521 256.5,325.5C 369.833,325.5 483.167,325.5 596.5,325.5C 596.5,340.167 596.5,354.833 596.5,369.5C 397.5,369.5 198.5,369.5 -0.5,369.5C -0.5,354.833 -0.5,340.167 -0.5,325.5 Z"/></g>
</svg>
